<svg xmlns="http://www.w3.org/2000/svg" width="36" height="29" viewBox="0 0 36 29"><defs><style>.cls-1{fill:#bdc0c5;fill-rule:evenodd}</style></defs><path id="ИКОНКА_ВЫХОДНОЙ" data-name="ИКОНКА ВЫХОДНОЙ" class="cls-1" d="M959 4419.61h-3.761v4.39h-3.21v-4.39h-22.053v4.38h-3.236v-4.4H923v-3.2c.116-.01.228-.02.341-.02h35.378c.094 0 .187.01.281.01v3.23zm-.094-5.25h-35.831c.087-.14.148-.25.213-.35 1.176-1.86 2.358-3.71 3.522-5.57a1.381 1.381 0 0 0 .193-.68q.018-5.4 0-10.8a.718.718 0 0 1 .243-.58q.588-.555 1.143-1.14a.716.716 0 0 1 .583-.24q9.145.015 18.29 0c1.911 0 3.822.01 5.733 0a.746.746 0 0 1 .585.23 6.049 6.049 0 0 1 1.321 1.43 5.237 5.237 0 0 1 .062 1.91c0 3.06 0 6.12.01 9.18a1.407 1.407 0 0 0 .21.71c1.157 1.86 2.332 3.7 3.5 5.54.071.11.133.21.223.36zm-28.647-16.12v7.97a50.11 50.11 0 0 1 21.462 0v-7.97h-21.462zm9.414 5.15a32.5 32.5 0 0 0-7.206.95c-.009-.16-.021-.29-.022-.41 0-.71.025-1.42-.008-2.13a1.679 1.679 0 0 1 .886-1.6 5.26 5.26 0 0 1 3.175-.69 4.915 4.915 0 0 1 2.148.6 1.735 1.735 0 0 1 1.035 1.75c-.039.5-.008 1-.008 1.53zm9.838.9c-.928-.18-1.817-.41-2.72-.52-1.36-.16-2.728-.26-4.094-.35a.339.339 0 0 1-.4-.43c.024-.45.015-.91 0-1.36a1.446 1.446 0 0 1 .513-1.15 3.882 3.882 0 0 1 1.994-.88 5.753 5.753 0 0 1 3.307.32 2.9 2.9 0 0 1 .881.56 1.538 1.538 0 0 1 .491.85c.066.98.028 1.96.028 2.96z" transform="translate(-923 -4395)"/></svg>