<svg xmlns="http://www.w3.org/2000/svg" width="24" height="24" viewBox="0 0 24 24"><defs><style>.cls-1{fill:#fff;fill-rule:evenodd}</style></defs><path class="cls-1" d="M11.25 0h1.68a12.732 12.732 0 0 1 5.05 1.6 11.907 11.907 0 0 1 5.836 8.3c.081.5.123.9.184 1.4v1.5c-.035.2-.065.5-.106.8a11.318 11.318 0 0 1-3.291 6.7 12.01 12.01 0 0 1-18.2-1.1 12 12 0 0 1 .572-15.1A11.9 11.9 0 0 1 9.958.2c.426-.1.86-.1 1.292-.2zm1.583 12.6v-.3-7.2a.835.835 0 1 0-1.666 0v8.3a.863.863 0 0 0 .906.9h5.039a.873.873 0 0 0 .9-.9.863.863 0 0 0-.908-.8h-4.27z"/></svg>