<svg xmlns="http://www.w3.org/2000/svg" width="50" height="29" viewBox="0 0 50 29"><defs><style>.cls-1{fill:#fff;fill-rule:evenodd}</style></defs><path id="иконка_глаз_copy" data-name="иконка глаз copy" class="cls-1" d="M1313 12393.9a18.979 18.979 0 0 1-1.45 2 32.6 32.6 0 0 1-11.29 9.1c-8.76 4.3-17.43 3.9-25.92-.7a35.155 35.155 0 0 1-10.88-9.6 1.763 1.763 0 0 1-.06-2.3c3.87-5 8.54-9.1 14.57-11.4a26.986 26.986 0 0 1 23.96 1.8 35.911 35.911 0 0 1 10.62 9.5 3.353 3.353 0 0 1 .45.8v.8zm-25.31-10.6c-5.88.3-10.43 5-10.19 10.5a10.519 10.519 0 1 0 10.19-10.5zm.39 4.7a5.542 5.542 0 0 1 5.59 5.5 5.645 5.645 0 0 1-5.67 5.5 5.5 5.5 0 1 1 .08-11z" transform="translate(-1263 -12379)"/></svg>