<svg xmlns="http://www.w3.org/2000/svg" width="29.03" height="29.031" viewBox="0 0 29.03 29.031"><path fill="#dbdbdb" d="M0 14.503v-2.045c.06-.377.11-.755.19-1.131a13.107 13.107 0 0 1 5.77-8.708A14.838 14.838 0 0 1 17.08.249a14.1 14.1 0 0 1 9.73 6.133 12.194 12.194 0 0 1 1.87 9.877 13.116 13.116 0 0 1-6.81 8.8 15.077 15.077 0 0 1-11.2 1.4.76.76 0 0 0-.61.076c-1.45.81-2.91 1.605-4.37 2.4a1.519 1.519 0 0 1-.3.1c0-1.644.01-3.288 0-4.931a.5.5 0 0 0-.18-.286c-.48-.433-.98-.829-1.43-1.286A12.834 12.834 0 0 1 .16 15.44c-.05-.316-.11-.627-.16-.937zm12.25-.3c1.23 1.318 2.46 2.627 3.69 3.947q3.87-4.114 7.7-8.189c-.02-.025-.05-.05-.07-.075-.09.051-.19.1-.29.152-2.09 1.164-4.19 2.324-6.28 3.495a.307.307 0 0 1-.45-.069c-1.11-1.181-2.24-2.352-3.36-3.529a1.478 1.478 0 0 1-.16-.289c-2.67 2.852-5.26 5.607-7.85 8.36l.03.052c2.34-1.283 4.68-2.566 7.04-3.857z"/></svg>