<svg xmlns="http://www.w3.org/2000/svg" width="27" height="26.969" viewBox="0 0 27 26.969" fill="#fff"><path class="cls-1" d="M27 12.654v1.689c-.04.312-.07.625-.12.937a13.517 13.517 0 0 1-15.19 11.592 12.9 12.9 0 0 1-7.68-3.782A13.2 13.2 0 0 1 .12 11.674a12.9 12.9 0 0 1 3.25-7.1A13.259 13.259 0 0 1 11.19.203c.49-.086.98-.138 1.46-.2h1.69a1.429 1.429 0 0 0 .2.043 12.9 12.9 0 0 1 5.87 1.864 13.332 13.332 0 0 1 6.38 9.266c.09.486.14.985.21 1.478zm-10.48 7.379a11.127 11.127 0 0 1-1.19.238 1.023 1.023 0 0 1-1.27-1.381c.22-1.054.51-2.095.78-3.138a12.964 12.964 0 0 0 .54-2.464 2.075 2.075 0 0 0-1.61-2.356 4.818 4.818 0 0 0-1.46-.1 9.055 9.055 0 0 0-2.53.766.214.214 0 0 0-.13.115c-.07.271-.13.547-.2.81a9.044 9.044 0 0 1 1.24-.229c1-.042 1.35.335 1.18 1.331-.12.75-.34 1.486-.52 2.226-.26 1.073-.58 2.134-.77 3.22a2.087 2.087 0 0 0 1.47 2.522 3.525 3.525 0 0 0 1.95.093c.75-.185 1.47-.475 2.2-.728a.265.265 0 0 0 .13-.141c.07-.257.13-.517.19-.784zM14.73 5.186c-.13.012-.26.017-.39.034a1.917 1.917 0 0 0-1.38 2.963 2.176 2.176 0 0 0 2.87.554 1.851 1.851 0 0 0 .46-2.837 2.065 2.065 0 0 0-1.56-.714z"/></svg>