<svg xmlns="http://www.w3.org/2000/svg" width="19.969" height="28" viewBox="0 0 19.969 28"><defs><style>.cls-1{fill:#fff;fill-rule:evenodd}</style></defs><path class="cls-1" d="M10.689 0c.582.1 1.171.2 1.743.3A10.087 10.087 0 0 1 19.917 9a11.851 11.851 0 0 1-.8 5.4 37.05 37.05 0 0 1-4.208 7.8 54.618 54.618 0 0 1-4.156 5.4.969.969 0 0 1-1.531 0A56.119 56.119 0 0 1 2.2 17.4a20.766 20.766 0 0 1-1.99-5.3 10.065 10.065 0 0 1 5.1-10.9A12.463 12.463 0 0 1 9.103 0h1.58zm4.323 10.1a5.024 5.024 0 1 0-5.037 5.1 4.962 4.962 0 0 0 5.037-5.1z"/></svg>