<svg xmlns="http://www.w3.org/2000/svg" width="27" height="27" viewBox="0 0 27 27"><defs><style>.cls-1{fill:#252525;fill-rule:evenodd}</style></defs><path id="ИКОНКА_НОЧЬ" data-name="ИКОНКА НОЧЬ" class="cls-1" d="M1071.89 4395a1.169 1.169 0 0 1 .87 1.38 1.726 1.726 0 0 1-.48.69 9.63 9.63 0 0 0-2.23 2.97 9.52 9.52 0 0 0 7.34 13.37 10.317 10.317 0 0 0 5.86-.71 1.191 1.191 0 0 1 1.27.07 1.111 1.111 0 0 1 .34 1.46 13.165 13.165 0 0 1-3.88 4.74 14.484 14.484 0 0 1-16.3.97 13.1 13.1 0 0 1-6.53-9.55 13.248 13.248 0 0 1 7.85-14.07 14.849 14.849 0 0 1 4.91-1.28 1.552 1.552 0 0 0 .21-.04h.77zm-3.25 2.76a11.108 11.108 0 0 0 .6 21.63 11.809 11.809 0 0 0 11.84-3.7c-5.09.53-9.3-1.03-12.17-5.16s-2.76-8.46-.27-12.77z" transform="translate(-1058 -4395)"/></svg>