<svg xmlns="http://www.w3.org/2000/svg" width="21" height="21" viewBox="0 0 21 21"><defs><style>.cls-1{fill:#fff;fill-rule:evenodd}</style></defs><path class="cls-1" d="M4.407 0a1.314 1.314 0 0 1 .852.8c.73 1.4 1.469 2.8 2.2 4.2a1.24 1.24 0 0 1-.238 1.6c-.316.3-.633.7-.96 1a.523.523 0 0 0-.161.6 5.868 5.868 0 0 0 .887 1.7 14.811 14.811 0 0 0 4.895 4.6 3.788 3.788 0 0 0 1.008.4.423.423 0 0 0 .479-.1l1.123-1.2a1.329 1.329 0 0 1 1.764-.2l4.064 2.4a1.591 1.591 0 0 1 .675.7v.4a1.962 1.962 0 0 1-.387.6c-.965 1-1.946 2-2.923 2.9a2.37 2.37 0 0 1-1.125.6 7.909 7.909 0 0 1-2.653-.3 16.226 16.226 0 0 1-4.688-2.3A27.531 27.531 0 0 1 2.807 12a14.46 14.46 0 0 1-2.45-4.8 6.822 6.822 0 0 1-.368-2.7 1.715 1.715 0 0 1 .583-1.2c.92-.9 1.842-1.9 2.757-2.8a2.1 2.1 0 0 1 .745-.5h.328z"/></svg>