<svg xmlns="http://www.w3.org/2000/svg" width="29" height="28" viewBox="0 0 29 28"><defs><style>.cls-1{fill:#787878;fill-rule:evenodd}</style></defs><path id="ИКОНКА_ШЕСТЕРЕНКА" data-name="ИКОНКА ШЕСТЕРЕНКА" class="cls-1" d="M1026.02 5118.79l-.73-1.71a31.193 31.193 0 0 0 1.55-3.93l-2.26-2.17a31.71 31.71 0 0 0-4 1.58l-1.77-.71a29.946 29.946 0 0 0-1.78-3.84h-3.18a29.117 29.117 0 0 0-1.67 3.85l-1.77.71a32.742 32.742 0 0 0-4.08-1.5l-2.25 2.17a29.836 29.836 0 0 0 1.64 3.86l-.73 1.71a32.536 32.536 0 0 0-3.98 1.72v3.07a31.717 31.717 0 0 0 3.99 1.61l.73 1.71a31.221 31.221 0 0 0-1.56 3.93l2.26 2.18a33.32 33.32 0 0 0 4-1.59l1.77.71a31.369 31.369 0 0 0 1.78 3.84h3.18a29.117 29.117 0 0 0 1.67-3.85l1.78-.71a32.589 32.589 0 0 0 4.07 1.5l2.25-2.17a28.507 28.507 0 0 0-1.64-3.86l.73-1.71a32.536 32.536 0 0 0 3.98-1.72v-3.07a31.592 31.592 0 0 0-3.98-1.61zm-5.87 3.21a4.648 4.648 0 1 1-4.64-4.48 4.567 4.567 0 0 1 4.64 4.48z" transform="translate(-1001 -5108)"/></svg>