<svg xmlns="http://www.w3.org/2000/svg" width="23" height="30" viewBox="0 0 23 30"><defs><style>.cls-1{fill:#787878;fill-rule:evenodd}</style></defs><path class="cls-1" d="M10.682 0h1.636c.353.06.707.11 1.058.18a9.29 9.29 0 0 1 7.348 8.31c.089 1.08.044 2.17.06 3.25v.38h.434a1.512 1.512 0 0 1 1.472.87 2.655 2.655 0 0 1 .31 1.35v13.42a3.946 3.946 0 0 1-.052.64 1.742 1.742 0 0 1-1.69 1.59c-6.5.01-13.008 0-19.512.01a1.516 1.516 0 0 1-1.294-.67 2.5 2.5 0 0 1-.449-1.54V14.31a3.8 3.8 0 0 1 .051-.61 1.744 1.744 0 0 1 1.845-1.58c.1 0 .19-.01.317-.02v-.42a20.367 20.367 0 0 1 .174-4.05A9.189 9.189 0 0 1 9.2.28c.481-.13.987-.19 1.482-.28zm6.237 12.1a1.549 1.549 0 0 0 .017-.18c-.016-1.09.053-2.19-.068-3.28A5.408 5.408 0 0 0 6.241 8a17.98 17.98 0 0 0-.165 4.05.105.105 0 0 0 .036.05h10.807zM9.647 23.18v1.9a.9.9 0 0 0 .987.98q.832.015 1.664 0A.926.926 0 0 0 13.352 25c0-1.22-.006-2.46.007-3.68a.867.867 0 0 1 .167-.47 2.648 2.648 0 0 0 .542-1.43 2.5 2.5 0 0 0-2.624-2.67 2.4 2.4 0 0 0-2.265 1.42 2.465 2.465 0 0 0 .328 2.72.665.665 0 0 1 .133.36c.014.64.007 1.29.007 1.93z"/></svg>