<svg xmlns="http://www.w3.org/2000/svg" width="31" height="31" viewBox="0 0 31 31"><defs><style>.cls-1{fill:#252525;fill-rule:evenodd}</style></defs><path id="ИКОНКА_ДЕНЬ" data-name="ИКОНКА ДЕНЬ" class="cls-1" d="M685.742 4393a1.2 1.2 0 0 1 .779 1.31c-.027.54 0 1.09-.007 1.63a1.018 1.018 0 1 1-2.029 0c0-.54.02-1.09-.007-1.63a1.2 1.2 0 0 1 .779-1.31h.485zM701 4408.74a1.194 1.194 0 0 1-1.314.78c-.542-.03-1.086 0-1.63-.01a1.014 1.014 0 1 1 0-2.02c.543-.01 1.088.02 1.63-.01a1.192 1.192 0 0 1 1.313.78v.48zm-6.063-.25a9.438 9.438 0 1 1-9.447-9.43 9.467 9.467 0 0 1 9.447 9.43zm-9.424-7.4a7.41 7.41 0 1 0 7.395 7.42 7.409 7.409 0 0 0-7.395-7.42zm-13.476 6.4c.322 0 .644-.01.966 0a1.011 1.011 0 1 1 0 2.02q-.982.015-1.963 0a1.01 1.01 0 1 1 0-2.02c.332-.01.66 0 .997 0zm14.477 14.5c0 .32.009.65 0 .97a1.013 1.013 0 1 1-2.026 0 53.36 53.36 0 0 1 0-1.96 1.014 1.014 0 1 1 2.026-.01c.009.34 0 .67 0 1zm-10.808-7.27a.939.939 0 0 1-.443.85c-.61.37-1.226.73-1.855 1.07a.991.991 0 0 1-1.334-.4.977.977 0 0 1 .341-1.34c.6-.37 1.207-.73 1.829-1.06a1 1 0 0 1 1.462.88zm16.012-16.02a.976.976 0 0 1-.9-1.4c.335-.67.718-1.31 1.114-1.94a1 1 0 0 1 1.724 1c-.346.66-.728 1.3-1.114 1.93a.892.892 0 0 1-.824.41zm-16.013 3.56a.985.985 0 0 1-1.42.91c-.653-.33-1.286-.71-1.908-1.09a1.005 1.005 0 0 1 .992-1.74c.649.35 1.28.72 1.909 1.1a.927.927 0 0 1 .427.82zm3.418-3.56a.882.882 0 0 1-.714-.47c-.354-.6-.707-1.2-1.039-1.81a1 1 0 0 1 1.741-1c.362.6.715 1.2 1.041 1.81a1.013 1.013 0 0 1-1.029 1.47zm18.953 1.53a1.034 1.034 0 0 1 .923.69.939.939 0 0 1-.319 1.11c-.653.41-1.322.81-2.009 1.16a.955.955 0 0 1-1.263-.45.99.99 0 0 1 .327-1.31c.616-.38 1.248-.73 1.881-1.08a1.427 1.427 0 0 1 .46-.12zm-.029 16.55a2.208 2.208 0 0 1-.507-.17c-.589-.33-1.175-.66-1.751-1.01a1.005 1.005 0 0 1 .99-1.75c.609.33 1.209.68 1.8 1.04a.981.981 0 0 1 .435 1.13 1.064 1.064 0 0 1-.967.76zm-20.837 4.26a3.807 3.807 0 0 1 .21-.56c.3-.54.616-1.08.933-1.62a1.013 1.013 0 1 1 1.751 1.01c-.322.56-.645 1.13-.983 1.69a.982.982 0 0 1-1.144.46 1.09 1.09 0 0 1-.767-.98zm14.662-2.74a.863.863 0 0 1 .7.45c.362.6.719 1.21 1.055 1.83a1 1 0 0 1-1.744.99 35.76 35.76 0 0 1-1.041-1.8 1.014 1.014 0 0 1 1.03-1.47zm-11.76-9.97a5.4 5.4 0 0 1 5.334-5.22 1.02 1.02 0 0 1 1.066.97 1 1 0 0 1-.993 1.04 3.367 3.367 0 0 0-3.246 2.44 3.187 3.187 0 0 0-.134.86 1.021 1.021 0 1 1-2.027-.09z" transform="translate(-670 -4393)"/></svg>