<svg xmlns="http://www.w3.org/2000/svg" width="17" height="28" viewBox="0 0 17 28"><defs><style>.cls-1{fill:#fff;fill-rule:evenodd}</style></defs><path class="cls-1" d="M8.468 21H6.009a1.478 1.478 0 0 1-1.566-1.4 8.634 8.634 0 0 0-2-4.3A9.152 9.152 0 0 1-.002 8.7 8.813 8.813 0 0 1 6.889.2a8.425 8.425 0 0 1 9.909 7 8.819 8.819 0 0 1-2.034 7.8 9.505 9.505 0 0 0-2.251 4.7 1.421 1.421 0 0 1-1.454 1.3H8.466zM8.316 2.5a1.024 1.024 0 0 1-.535.1 6.332 6.332 0 0 0-5.419 6.3.932.932 0 0 0 .9 1.1.908.908 0 0 0 1.018-1 6.612 6.612 0 0 1 .384-1.8 4.072 4.072 0 0 1 3.667-2.6.969.969 0 0 0 .94-.5.936.936 0 0 0 .057-1 1.1 1.1 0 0 0-1.012-.6zm.189 19.9h2.829a.992.992 0 0 1 1.085 1.1c0 .3.008.7-.006 1a1.73 1.73 0 0 1-1.082 1.6c-.223 0-.305.1-.348.4-.045.2-.1.4-.169.6a1.11 1.11 0 0 1-1.131.9H7.292a1.112 1.112 0 0 1-1.131-.9 1.827 1.827 0 0 1-.05-.2 1.174 1.174 0 0 0-.7-1 1.384 1.384 0 0 1-.837-1.3c-.025-.4-.025-.8-.01-1.2a.913.913 0 0 1 1.013-1 28.635 28.635 0 0 1 2.928 0z"/></svg>