<svg xmlns="http://www.w3.org/2000/svg" width="31.03" height="26.969" viewBox="0 0 31.03 26.969"><path fill="#dbdbdb" d="M31.03 2.083l-.54 2.552q-1.98 9.72-3.97 19.44c-.09.475-.18.951-.29 1.42-.39 1.543-1.47 1.933-2.71.989-2.11-1.618-4.23-3.24-6.34-4.861-.62-.473-.62-.474-1.17.07-1.02 1.027-2.06 2.053-3.08 3.084a1.648 1.648 0 0 1-1.24.528l.09-1.347c.13-1.967.27-3.934.4-5.9a.691.691 0 0 1 .25-.5L25.22 5.551a.6.6 0 0 0 .14-.127c.08-.154.15-.316.23-.474a1.687 1.687 0 0 0-.55-.1 1.509 1.509 0 0 0-.57.271q-7.965 5.2-15.92 10.417a.776.776 0 0 1-.75.107c-2.2-.73-4.41-1.434-6.61-2.163a2.958 2.958 0 0 1-.83-.43.69.69 0 0 1-.09-1.131 3.507 3.507 0 0 1 1.03-.7c2.07-.856 4.15-1.681 6.23-2.513Q18.195 4.438 28.87.174a2.323 2.323 0 0 1 .64-.172 1.253 1.253 0 0 1 1.46 1.089l.06.176v.823z"/></svg>