<svg xmlns="http://www.w3.org/2000/svg" width="24.031" height="30" viewBox="0 0 24.031 30" fill="#a3a3a3"><path d="M12.831 0c.505.09 1.017.14 1.512.26a4.484 4.484 0 0 1 3.482 3.08 10.705 10.705 0 0 1 .063 6.82 6.865 6.865 0 0 1-1.873 2.89 5.707 5.707 0 0 1-8.08-.11 7.324 7.324 0 0 1-2.167-4.4 11.715 11.715 0 0 1 .37-4.96A4.8 4.8 0 0 1 10.409.12l.819-.12h1.6zm-1.113 30a28.97 28.97 0 0 1-6.919-.77 11.62 11.62 0 0 1-3.565-1.47c-.1-.07-.195-.15-.3-.21a1.848 1.848 0 0 1-.923-1.89c.162-1.37.178-2.76.309-4.14a6.97 6.97 0 0 1 .709-2.44 5.625 5.625 0 0 1 3.057-2.68 20.639 20.639 0 0 1 4.319-1.14.347.347 0 0 1 .237.08 5.513 5.513 0 0 0 6.779-.01.281.281 0 0 1 .213-.07A18.694 18.694 0 0 1 20.4 16.6a5.606 5.606 0 0 1 3.216 4.24 30.387 30.387 0 0 1 .405 5.6.879.879 0 0 1-.257.51 6 6 0 0 1-1.911 1.36 15.958 15.958 0 0 1-4.6 1.33 36.443 36.443 0 0 1-5.531.36z"/></svg>