<svg id="Слой_1" xmlns="http://www.w3.org/2000/svg" viewBox="0 0 1920 2030"><style>.st0{fill:#fff}.st1{fill:url(#SVGID_1_)}.st2{opacity:.3;fill:#f5f5f5}.st3,.st4,.st5{opacity:.3;fill:#fafafa}.st4,.st5{fill:#f8f8f8}.st5{fill:#f7f7f7}.st6,.st7,.st8{opacity:.3;fill:#dadada}.st7,.st8{fill:#cdcdcd}.st8{fill:#ededed}.st10,.st9{opacity:.3;fill:#d4d4d4}.st10{fill:#f3f3f3}.st11,.st12{opacity:.3;fill:#e0e0e0}.st12{fill:#e3e3e3}.st13,.st14{opacity:.3;fill:#eee}.st14{fill:#f6f6f6}.st15,.st16{opacity:.3;fill:#e5e5e5}.st16{fill:#dfdfdf}.st17,.st18{opacity:.3;fill:#f4f4f4}.st18{fill:#fefefe}.st19,.st20{opacity:.3;fill:#e6e6e6}.st20{fill:#e8e8e8}.st21{fill:#fefefe}.st22,.st23{opacity:.3;fill:#d8d8d8}.st23{fill:#f9f9f9}.st24,.st25{opacity:.3;fill:#e4e4e4}.st25{fill:#d6d6d6}.st26,.st27{opacity:.3;fill:#c9c9c9}.st27{fill:#fdfdfd}.st28,.st29{opacity:.3;fill:#cacaca}.st29{fill:#d3d3d3}.st30,.st31{opacity:.3;fill:#cbcbcb}.st31{fill:#d5d5d5}.st32,.st33{opacity:.3;fill:#fcfcfc}.st33{fill:#d7d7d7}.st34,.st35{opacity:.3;fill:#d2d2d2}.st35{fill:#e7e7e7}.st36,.st37{opacity:.3;fill:#e1e1e1}.st37{fill:#cfcfcf}.st38,.st39{opacity:.3;fill:#dcdcdc}.st39{fill:#ececec}.st40,.st41{opacity:.3;fill:#cecece}.st41{fill:#d1d1d1}.st42,.st43{opacity:.3;fill:#ddd}.st43{fill:#dedede}.st44,.st45{opacity:.3;fill:#d0d0d0}.st45{fill:#d9d9d9}.st46,.st47{opacity:.3;fill:#dbdbdb}.st47{fill:#ccc}</style><path class="st0" d="M1247 346c-3.2-10.8-10.2-17.8-21-21h21v21zM756 325c-10.7 3.3-17.7 10.3-21 21v-21h21z"/><linearGradient id="SVGID_1_" gradientUnits="userSpaceOnUse" x1="964.25" y1="923.2" x2="964.25" y2="-992.757" gradientTransform="matrix(1 0 0 -1 0 1080)"><stop offset="0" stop-color="#fff"/><stop offset=".161" stop-color="#f3f6fb"/><stop offset=".85" stop-color="#eef2f9"/><stop offset="1" stop-color="#fefeff"/></linearGradient><path class="st1" d="M0 156.8h1928.5V2030H0z"/><path class="st2" d="M0 1531.5v-258.3c6.2.3 12.3.8 18.5.9 14.7.2 29.3 0 44 .2 12.8.2 25.5.7 38.3.9 9.5.1 19-.1 28.6 0 3.8 0 4.8-2.1 5.2-5.3.3-2.3 1.4-4.4 2.1-6.6-2.4 8.6.4 12.2 9.3 11.9 9.4-.4 18.9-.2 28.3 0 9.6.2 19.3.5 28.9 1.1 1.7.1 3.2 1.9 4.9 2.9-1.2 2.8-1.8 6-3.6 8.2-1.7 2.1-4.9 4.7-7.1 4.4-6.1-.8-8.4 2.5-10.5 7.1-6 13.3-12.1 26.4-18 39.7-1.6 3.6-3 4.9-7.1 3.3-2.6-1-5.9-.9-8.7-.3-3.9.8-7.5 2.8-11.4 3.8-2.2.6-4.7 1-6.8.5-10.9-2.8-10.9-2.9-16.2 6.9-1.6 2.9-3.2 5.9-4.8 8.8-.4.9-.5 1.9-.9 3.5 1.2-.6 1.8-.6 2-1 2.1-3.8 4.4-7.5 6.3-11.4 3.6-7.4 4.5-8.1 11.8-5 4.2 1.8 7.6 1.2 11.4-.6 3.3-1.6 6.8-2.9 10.3-3.9 1.6-.5 3.7-.3 5.4.2 18.4 5.9 36.8 12 55.2 18.1 4.3 1.4 8.6 2.7 13 4-1.3-1.9-3-2.9-4.9-3.4l-48.3-15.3c-2.9-.9-6.9-1.3-4.8-6.1 6.1-13.4 12.3-26.7 18.4-40.1 1.6-3.4 4.1-5.1 7.9-5.2 5.3-.3 9.1-2.8 11-7.9.7-2 1.6-4 2.4-6.1 3.1-4.1 7.2-4.7 12-4.2 10.5 1 21 1.4 31.5 2.2 20.9 1.8 41.9 3.6 62.8 5.7 8.6.9 17.1 2.6 25.7 3.4 2.8.2 5.8-1.4 8.7-2.1.6 1.2 1.2 2.4 2.1 4.1h-3.1c.8 2.4 2.2 4.8 2.1 7.1-.1 2-2.3 3.7-2.8 5.8-.5 1.8 0 3.8.1 5.7 2.1-.1 4.5.4 6.4-.4 3.8-1.7 7.2-4.1 10.8-6.1 1.4-.8 3-1.3 5.2-2.2-4.4-3.8-11.7-2.8-11.7-9.9 9.7 1.4 19.3 2.7 29 4.3 8.8 1.4 17.6 3.1 26.4 4.7 16.8 15 33.5 30.3 52.8 42.1 2.4 1.4 5.1 2.9 7.7 3.2 13.6 1.2 27.3 1.9 41 2.9 6.2.5 6.1.6 5.4 7.1-.4 3.3 0 6.7 0 10.1.9 0 1.8 0 2.6-.1v-26.1c.7-8.7 1.3-17.4 2-26.1 5-3.7 3-8.5 2-13.1v-3c3.2-1.2 6.4-3.6 9.5-3.4 14.4 1 28.8 2.7 43.1 4.2 7.3.7 10.7-3.4 8.6-10.6-.2-.7 0-1.5 0-3.3 4.1 2.3 3.6 5.3 3 8-.9 4.1.5 6 4.6 6.3 7.3.6 14.6 1.5 21.9 2.2 4.6.4 9.1.8 14.6 1.3-2.8 4.5-5.4 8-7.3 11.8-1.3 2.6-2.3 5.5-2.3 8.3 0 3.8 1.1 7.6 1.8 11.4.9 10.6 1.8 21.1 2.7 31.7.8-.1 1.6-.2 2.5-.2-1.4-10.2-2.8-20.3-4.2-30.5.7-5 1.3-10.1 2-15.1 7-10.4 14.1-20.8 21.1-31.2 3.2 2.2 5.7 6.2 11.9 4-3.7-3-6.8-5.5-9.9-8.1 4.6-4.3 10.3-4.2 16-3.8 12.5.7 25 1.4 37.5 1.8 2 .1 4.1-1.3 6.2-2-1-2.5-1.9-5.1-3.2-7.5-.9-1.6-2.7-2.8-3.9-4.3-3.9-4.9-7.3-10.2-11.6-14.7-1.6-1.7-5.1-1.4-7.8-2-2.3-.5-4.6-.9-6.9-1.3.1-.5.2-.9.4-1.4 1.9.4 4 1.3 5.8 1 6.9-1.3 10.8 2.7 14.9 7.2 4.7 5.2 9.9 9.9 14.7 15 1.7 1.8 3.6 3.9 4.2 6.2.9 3.3 2.5 4.9 5.9 4.9 5.2.1 10.3.2 15.5.5 17 .8 33.9 1.9 50.9 2.5 27.5.9 55.1 1.4 82.6 2.1 9.2.2 18.3.1 27.5.4 12.5.4 25 .9 37.6 1.4 14.8.5 29.7.6 44.5 1.7 3.4.3 7.5 3.3 9.6 6.3 8.6 11.7 16.4 24 24.7 36 1.7 2.4 4 4.4 6 6.6-7.4 5.4-14.7 10.7-22.1 16.1-4 2.5-7.9 4.9-11.9 7.4-10.5 6.8-20.4 14.8-31.7 20.1-21.8 10.3-44.2 19.1-66.5 28.2-10.2 4.2-20.5 8.2-31.2 11-11.1 2.9-22.7 4.2-34 6-34.8 5.5-69.7 11.1-104.6 16.4-7.7 1.2-16 2.6-23.4 1.1-19.8-4.2-39.3-9.6-58.8-15.3-6.2-1.8-11.8-2.7-18.1-1.3-3.5.7-7.8 1.3-10.8-.1-6.1-2.8-12.2-3.2-18.5-3.3-2.8 0-5.7-.7-8.3-1.7-1.8-.7-3.2-2.4-4.9-3.8l-3.6 1.2c-3.7 1.2-7.7 1.8-10.8 3.9-4 2.6-6.6 7.8-10.7 9.5-10.6 4.4-21.8 7.6-32.7 11.3 0-4 0-8 .2-12.1.9-20.7 1.9-41.4 2.8-62.1.1-1.3-.3-2.5-.5-3.8-1.2 1.5-1.4 2.8-1.4 4.1-.4 7.8-1 15.7-1.3 23.5-.6 15.4-1.2 30.7-1.6 46.1 0 1.4 1.2 2.9 1.9 4.3-.6.3-1.1.8-1.7 1-17.2 6-34.3 12-51.5 17.9-1.4.5-2.9.6-4.4.4-7.6-.7-15.2-1.5-22.8-2.2-.4-1.3-.8-3.6-1.2-3.6-4.9.1-8.8-1.4-11.3-5.9-.2-.3-.9-.2-1.4-.4-7.1-2.6-14.6-4.5-21.2-8.1-9.5-5.2-12.7-6.2-21.8-3.7 9.6 4.6 20.1 9.7 30.6 14.6 6.8 3.2 13.7 6.2 20.7 8.9 1.5.6 3.7-.5 5.6-.8 6.5.5 13.1 1 19.6 1.4 0 .5.1.9.1 1.4-1.8.5-3.6 1.3-5.5 1.6-22.1 3.5-43.9 9-66.6 7.9-5.1-.2-10.9 1.8-15.5 4.3-8.1 4.3-15.7 9.6-23.2 14.9-6.4 4.5-13.1 5.6-20.5 3.9-5.4-1.2-10.8-2.5-16.3-3.2-25.7-3.3-51.4-6.6-77.2-9.4-27.4-3-54.6-8.1-82.4-6.9-2.8.1-6.3-.6-8.5-2.2-11.5-8.3-22.8-17-34.1-25.6l-27.9-21.3c-2.3-1.7-4.7-3-6.7.6-3.2 5.9-7.1 11.5-9.4 17.7-5.1 13.8-9.2 27.9-14.1 41.8-1.2 3.5-3.6 6.9-6.3 9.4-7.7 6.7-15.7 13-23.7 19.3-6.9 4.6-13.3 10.5-22.4 11.2zm359.1-119.9c-.8 2.3-1.5 4.5-2.5 6.6-.6 1.2-1.6 2.9-2.7 3.2-4.5 1.1-9.2 1.8-13.8 2.7-.4.1-.8.2-1.7.5 1.9.3 3.2.5 4.5.8-1 .9-1.7 1.5-2.4 2.1.1.1.2.2.8.7 7.1-3.2 12.1-.5 15.4 6.6.9 1.9 2.7 3.4 4.2 5 2.4 2.7 4.4 1.9 5.7-1 .5-1.1 1.1-2.7.7-3.8-2.6-7.9-5.4-15.5-8.2-23.4zm-171.9 25.7c2.9-.4 5.9-.3 8.6-1.3 3.8-1.4 7.4-2.9 11.6-1.2.6.2 2.6-1.1 2.7-1.9.1-1.2-.6-3.3-1.4-3.6-7.5-2.1-9.6-8.6-12.7-14.6-.9-1.8-2.4-3.4-3.6-5.1-.4.3-.8.6-1.2.8 1.5 4.9 3.3 9.7 4.4 14.6 1.3 6.8-5 8.2-8.4 12.3zm109.7-16.8c5.2 1 10.9-1.4 13.4 4.7.1.2.6.4.9.4 4.3.3 8.6.9 12.8.6 1.5-.1 2.9-2.6 4.3-4-1.6-1.2-3.2-3.5-4.7-3.5-8.6.3-17.2 1.1-26.7 1.8zm38.4-103.2c2.6 2.5 4.8 6 7.9 7.4 4.7 2.2 3.1 4.7 1.6 7.6-1.2 2.2-2.6 4.3-4 6.6 5.1 2.3 7.4 1 7.6-3.1.1-2.8.7-5.6.9-8.4.3-3.2.4-6.3.6-10.6-6.2 6-6.2 6-14.6.5zm29.3 56.3c-.4-.1-.8-.3-1.2-.4-3.6 5.2-6.9 10.5-8.3 16.8-.3 1.2 1.6 2.9 2.4 4.4 1.4-.9 3.1-1.5 4.2-2.7.8-.9.8-2.5 1.1-3.8.7-3.9 1.5-7.8 2.1-11.6.1-.8-.2-1.8-.3-2.7zm-97.8-74.6c6.1-.7 11.7-1.2 17.3-2.1 1.1-.2 1.9-1.8 2.8-2.7-1-.6-2-1.8-3.1-1.9-3.4-.2-6.9-.1-10.3-.1.2.3.4.7.6 1-2.3 1.9-4.6 3.7-7.3 5.8zm26.9-4.3c1.8 1.5 3.4 2.8 5 4.2 2.9 2.4 7.9.5 6.7-2.6-1.1-2.9-3.9-5.1-6-7.7-2.3 2.5-3.9 4.2-5.7 6.1zm416.6 100.9c-1.5 2.2-3.5 3.8-3.3 5 .3 1.5 2.3 2.7 3.6 4.1 1.2-1.3 3.3-2.6 3.3-3.8-.2-1.6-2-3.1-3.6-5.3zm-607.2-56.5c-.6-.4-1.1-.9-1.7-1.3-1.8 2.7-3.6 5.4-5.4 8.2.5.4 1.1.7 1.6 1.1 1.8-2.7 3.7-5.4 5.5-8zm122.1-35.9c.2.6.3 1.1.5 1.7 3.4-.9 6.8-1.8 10.2-2.8-.1-.5-.3-1-.4-1.5-3.5.9-6.9 1.8-10.3 2.6z"/><path class="st3" d="M1707.8 1308.3c-2.5-8-4.7-16-7.4-23.9-2.3-6.7-1.9-7.3 5.2-7.3 15.8-.2 31.6-.8 47.4-.8 8.2 0 13.9-4.7 19-9.9 7-7.1 6.5-7.3 0-15.1-3-3.6-5.2-7.7-7.6-11.8-3.8-6.5-7.3-13.1-10.9-19.7-.6-1.1-.9-2.3-1.6-4.1 1.4.2 2.3.1 2.6.5 4.6 5.5 9.1 11 13.7 16.5 4.4 5.4 8.6 11 13.3 16.1 2.7 2.8 10.3 2.2 13.6 0 13.3-8.8 27.5-15.2 43.5-17 3.5-.4 7 0 10.5.2 4.7.2 7.1-2.2 6.4-6.7-1.5-9.9-3.3-19.8-5-29.7-.3-1.8-.3-3.7-.5-5.5.6-.2 1.2-.4 1.8-.7.9 1.7 2.1 3.3 2.6 5 2.6 8.8 4.8 17.8 7.5 26.6 1 3.1 2.6 6.1 4.4 8.8.6.9 2.6.8 4 1.2.1-1.2.8-2.6.4-3.6-3.1-7.7-6.6-15.3-9.6-23-3.3-8.7-6.6-17.5-9.2-26.4-1.4-4.9.5-6.8 5.6-7.2 7.2-.5 14.4-.6 21.5-1.2 6.1-.5 9.9 2.4 13.7 6.7 6.1 7.1 12.8 13.7 19.2 20.4v25.1c-10.4 4.1-20.8 8.1-31.1 12.5-1.2.5-2.6 2.9-2.4 4.3.3 3.2-.3 4.2-3.7 5.4-2.8 1-5.8 5-6.1 8-.4 3.2 3.3 4.6 7 4.5 1.5-.1 3.6 1.7 4.6 3.2 1.3 1.8 1.7 4.3 2.5 6.4 3.6 3.7 7.3 7.4 11.3 11.5-3.1.4-5.3.7-7.5 1 .2-.4.4-.7.6-1.1-2.6-1.5-5.3-4.3-7.8-4.2-2.2.1-4.7 3.1-6.2 5.4-1.6 2.4-2.1 5.4-3.4 9 0-2.6.3-4.5-.1-6.2-.5-2.6-1.5-5-2.2-7.5-.9 2.6-2.3 5.2-2.6 7.8-1.2 8.9-.8 18.3-3.2 26.8-3.7 12.9-9.2 25.2-14 37.8-1.4 2.5-3 4.9-4.2 7.4-2.9 6.2-7.3 11.8-14 12.6-6.8.8-14-.9-21-1.5-5.3-.5-6.6-3.5-5.3-8.4 5.1-18.7-3.1-34.3-11.4-49.9-.3-.5-1-.7-2.6-1.7-.9 5 .4 8.7 2.4 12.2 7 12.1 11.4 24.5 7.1 38.7-1.4 4.7-3.6 6.9-8.4 6.7-1.7 0-3.5.5-4.4.6 1.6 1.9 3 3.7 4.4 5.4 2 1.8 3.9 3.8 6.1 5.5 2 1.5 4.2 2.7 6.3 4-.2.7-.3 1.5-.5 2.2-7.2.7-14.4 1.8-21.7 2.1-4.1.2-9.1.5-9.2-6.9-1.9 1.5-3.3 2.1-3.8 3.1-2.2 4.9-6.3 5.3-10.9 5.1-9-.3-18.1-.6-27.1-.4-1.5 0-3.6 1.9-4.2 3.5-.6 1.4.6 3.5.7 5.3.5 5.1 1.9 10.4 1 15.3-1.3 7-4.5 13.6-6.4 20.5-.8 3.1-.9 6.7-.2 9.9 2.1 9.6 4.4 19.3 7.1 28.7 3.7 12.9 7.3 25.9 18.1 35.1 5.3 4.6 10.4 9.4 15.4 14.3 1.3 1.3 3.1 3.8 2.7 5-2.4 6.6 1.9 7.3 6.4 8.2 1.6.3 3.3.9 4.7 1.6 4.8 2.4 9.5 4.9 14.2 7.4l-.6 1.5c-.7 0-1.6.1-2.2-.2-7.7-3.1-15.5-6.1-23.1-9.5-1.3-.6-3-3-2.7-4.2 1.7-6.5-2.7-9.4-6.7-12.7-12.3-9.8-22.2-21.2-26.1-37-3.3-13.1-7-26.2-10.1-39.4-1-4.3-3-4.6-6.4-3.5-1.2.4-2.4 1.2-3.5 1.9-5.1 3.2-10.2 6.5-16.8 5-1.3-.3-3 .5-4.3 1.1-5.9 2.8-11.8 5.5-17.5 8.7-4.1 2.3-7.5 2.5-10.6-1.5-1.9-2.3-3.8-2.4-6.5-.5s-6 2.7-8.9 4.3c-2.3 1.2-4.9 2.3-6.6 4.1-2.9 3.2-5.1 7.1-8 10.2-1.6 1.7-4.2 3.1-6.5 3.4-7.6.9-15.3 1.6-23 1.8-10.3.3-20.7.4-31 .1-3.6-.1-6.8-1.8-7.9-5.9.7-.3 1.3-.7 2-1 4 5.8 10.3 6.1 16.2 5.8 14-.6 28-1.9 42-2.7 3.3-.2 5.4-1.2 7.4-4 4.8-6.9 9.1-14.6 19-15.5 1.3-.1 2.8-1.2 3.8-2.2 3.8-3.4 7-2.8 10.4.7 1.2 1.2 4 1.9 5.5 1.3 5.3-2.1 10.2-4.8 15.4-7.2 2.9-1.3 5.9-3.2 8.8-3.2 5.8 0 10.8-1.6 15.5-4.8 2-1.4 4.7-1.7 6.8-3.1 2.2-1.4 5.2-3.2 5.7-5.3 2.2-9 4.3-18.2 5-27.4.7-9.6-2.5-13.1-10.7-14.7-7.4-1.4-14.8-3.3-22.2-3.8-6-.4-12.4 0-18.1 1.9-8 2.7-15.4 7-23.1 10.6 1-1.7 2-3.4 3-5 5.4-2.7 10.8-5.3 15.8-7.8-1.2-3.1-2.9-6.2-2.5-6.5 2-1.7 4.6-2.8 7.1-3.6 1.8-.6 4-.1 5.9-.6 1.5-.4 2.9-1.5 4.3-2.3l-.3-1.5c-2-.3-4-.7-6.1-.8-2.8-.1-5-.7-5.2-4 .8-1.8 1.9-3.6 2.4-5.5 1.2-4.9 3.2-8.6 9-9.2 2.3-.3 4.4-2.2 6.8-3.5-.7-1.3-1.4-2.3-1.6-3.4-1.3-5.1 1.7-8.1 5.3-10.9 3.7-2.7 4.9.9 7 2.5 1.6 1.1 3.1 2.2 4.7 3.3.2-.3.4-.6.5-.9-2.4-2.7-4.8-5.3-8.3-9.2 3.4-.5 5.6-1.4 7.6-1 3.2.6 5.3-.4 5.3-3.4-.1-3.6 1.9-5.1 4.5-6.4 6.7-3.5 13.4-6.9 20-10.5 6-3.3 12-6.6 17.8-10.2 1.4-.9 2-2.9 2.9-4.5-1.8.1-3.9-.3-5.4.5-12.5 6.7-24.8 13.7-37.3 20.4-1.2 1.3-3.1 1-4.7 1.2zm117.4 29.1c.4-.1.8-.1 1.2-.2 0-3.6-.1-7.2 0-10.9.3-7-.7-13.6-4.7-19.6-1.3-2-2.4-4.8-2-7 1.7-10.7-2.1-18.9-10-25.8-1.2-1-1.6-3-2.4-4.5 1.6-.7 3.2-1.8 4.9-2.1 13.5-2.6 27-4.9 40.4-7.6 2.1-.4 5.5-2.3 5.5-3.6.1-3.2-.4-7.5-2.4-9.6-8.4-8.4-18.8-9.7-29.6-4.6-2.4 1.1-5 1.9-7.4 3.2-8 4.5-16.2 8.6-23.6 13.9-6.2 4.5-4.8 9.6 2.4 12.5 9.1 3.7 15.5 10.3 18 20 1.2 4.8 1 10.4 3.4 14.4 4.5 7.8 6.2 15.7 5.6 24.5-.2 2.3.5 4.7.7 7zm-47.1 30.4c0-.4 0-.8-.1-1.3-20.4-.4-40.8-5.3-61.5-.9 2.1 1.7 4.4 2.9 6.8 2.9 14.9.2 29.8.1 44.6 0 3.5.1 6.9-.4 10.2-.7zm118-147.5c-.1-.7-.3-1.3-.4-2-6.7.9-13.5 1.3-20.1 2.7-4.8 1-2.3 5.4-2 7.9.3 2.8 2.8 2.5 5.1 1.2 5.8-3.4 11.6-6.6 17.4-9.8zM1708 1368c-4.7-6-13.9-5.7-17.3 0h17.3zm.8-6.2c3.1-4.8 5.6-8.7 8.4-13-6.8-1.2-9 3.2-11.2 6.8-.6 1 1.6 3.7 2.8 6.2zm4.6-47.1c1 5.6 3 6.3 6.8 3.3-1.9-.9-3.9-1.8-6.8-3.3z"/><path class="st4" d="M0 1195.7c23.9.7 47.8 1.5 71.7 2 13 .3 26-.1 39 0 30.1.4 60.1.8 90.2 1.4 8.2.2 16.3 1 24.5 1.5 2.7.2 3.5 1.5 3.3 4.3-2.3 25.3-12.3 48.4-19.7 72.3-.2.6-.6 1.2-.9 1.8-1.6-1-3.2-2.7-4.9-2.9-9.6-.6-19.3-.9-28.9-1.1-9.4-.2-18.9-.4-28.3 0-8.9.3-11.7-3.3-9.3-11.9-.7 2.2-1.8 4.3-2.1 6.6-.5 3.2-1.5 5.3-5.2 5.3-9.5-.1-19 .1-28.6 0-12.8-.2-25.5-.7-38.3-.9-14.7-.2-29.3 0-44-.2-6.2-.1-12.3-.6-18.5-.9v-77.3z"/><path class="st5" d="M51.2 1502.3c4.7 3.3 9.9 5.8 12.7 11.5 1.3 2.6 4.5 4.4 6.9 6.4 10 8.1 20.2 15.9 29.9 24.4 3.9 3.5 6.7 8.3 9.8 12.6 9.7 13.2 18 27.3 25.4 41.9 2.9 5.8 6.9 11.1 10.7 16.3 2.9 3.9 1.9 7-1.9 8.5-5.9 2.3-11.6 6.2-18.5 4.8-1.2-.2-3.4-.6-3.5-1.2-1.3-6.7-6.7-4.9-10.7-5-15.4-.3-30.7-.3-46.1-.4-8 0-16 0-24-.1-14-.3-28.1-.7-42.1-1v-84.4c7.9-1.9 15.1-5.2 21.4-10.5 10-8.2 20.1-15.9 30-23.8z"/><path class="st6" d="M51.2 1502.3c-10 7.9-20.1 15.6-29.8 23.7-6.4 5.3-13.5 8.5-21.4 10.5v-5c9.1-.7 15.5-6.6 22.2-11.9 8-6.3 16.1-12.6 23.7-19.3 2.7-2.4 5.1-5.9 6.3-9.4 4.9-13.8 9-28 14.1-41.8 2.3-6.2 6.2-11.8 9.4-17.7 1.9-3.5 4.4-2.3 6.7-.6l27.9 21.3c11.3 8.6 22.5 17.3 34.1 25.6 2.2 1.6 5.7 2.3 8.5 2.2 27.8-1.1 55 3.9 82.4 6.9 25.8 2.8 51.5 6.1 77.2 9.4 5.5.7 10.9 2 16.3 3.2 7.4 1.6 14.1.6 20.5-3.9 7.5-5.3 15.1-10.6 23.2-14.9 4.7-2.5 10.4-4.5 15.5-4.3 22.7 1.1 44.5-4.3 66.6-7.9 1.9-.3 3.7-1.1 5.5-1.6 0-.5-.1-.9-.1-1.4-6.5-.5-13.1-1-19.6-1.4v-1.1c7.6.8 15.2 1.6 22.8 2.2 1.4.1 3 0 4.4-.4 17.2-5.9 34.3-11.9 51.5-17.9.6-.2 1.2-.6 1.7-1 10.9-3.7 22.1-6.8 32.7-11.3 4.2-1.7 6.8-6.9 10.7-9.5 3.1-2.1 7.2-2.7 10.8-3.9 1.5-.5 2.9-1 3.6-1.2 1.8 1.4 3.1 3.2 4.9 3.8 2.6 1 5.5 1.7 8.3 1.7 6.4.1 12.5.4 18.5 3.3 3 1.4 7.3.8 10.8.1 6.3-1.3 11.9-.5 18.1 1.3 19.4 5.7 39 11.1 58.8 15.3 7.4 1.6 15.7.1 23.4-1.1 34.9-5.2 69.7-10.8 104.6-16.4 11.4-1.8 22.9-3.1 34-6 10.6-2.7 21-6.8 31.2-11 22.3-9.1 44.7-18 66.5-28.2 11.2-5.3 21.1-13.4 31.7-20.1 3.9-2.5 7.9-5 11.9-7.4.7 1 1.4 2 2 3-1.9 1.4-3.8 2.8-5.7 4-13.6 8.8-26.7 18.7-41.1 26-16.5 8.4-34.1 14.6-51.3 21.7-20.9 8.6-41.5 17.7-64.4 20.4-18.2 2.2-36.2 6.4-54.4 9.2-22.6 3.5-45.3 6.8-68.1 9.5-8.3 1-17.1 1.3-25.3-.1-11.8-2-23.3-5.9-35-9-15-3.9-29.7-10.9-45.8-5.4-1-.3-2-.7-3-1-5.1-1.3-10.1-2.8-15.3-3.9-3.7-.8-7.5-.9-11.3-1.5-1.6-.2-3.1-.7-4.6-1-1 3.4-2 6.3-2.6 9.2-.8 3.4-1.3 6.9-1.8 10.4-.6 3.8-1.2 7.7-1.8 11.5-.5-.1-1-.2-1.6-.3.5-3.9.9-7.8 1.4-11.6.5-3.5 1.2-7 1.7-10.5.3-2.1.4-4.3.6-6.4-1.7 1.4-3.4 2.9-5.1 4.3-.3.3-.7.4-2 1.2.6-3 1.1-5.2 1.7-8-2.3 1.9-4.6 3.2-5.9 5.2-3.1 4.9-7.8 7-13 8.8-22.3 7.6-44.6 15.2-66.9 23-8.8 3.1-17.5 6.6-26.2 9.8h-2c-1.8 0-3.6-.2-5.4 0-5.6.9-11.2 2.4-16.8 2.9-16.1 1.6-32.2 2.7-48.3 4.2-3.1.3-6.3 1.4-8.9 2.9-8.2 4.9-16.2 10-24.1 15.4-6.9 4.7-14.2 5.9-22.4 4.4-14.8-2.6-29.7-4.9-44.6-6.8-21.7-2.8-43.4-5.3-65.2-7.8-12.9-1.5-25.9-2.8-38.8-4.2h-2c-3.7 0-7.4-.5-11 0-16.2 2.4-28.5-4.7-40.4-14.6-14-11.6-28.9-22.2-43.3-33.3-3.2-2.5-5.2-2-6.8 1.7-2.3 5.2-5.5 10-7.5 15.3-3.5 9.2-7.8 17.9-4.9 28.7 1.9 7.2 2.1 14.7 6.5 21.1-.4.7-.7 1.4-1.1 2.1-1.7-3.5-3.9-6.8-4.9-10.4-1.2-4.8-1.3-9.9-1.9-14.8-.5 0-1.1 0-1.6-.1-2.6 6.4-5.2 12.8-7.7 19.2-.8 1.4-1.5 2-2.2 2.7z"/><path class="st4" d="M1911.9 1287.2v5c-2.4 1.4-6.7 2.5-7 4.2-1 6.4-1 13-.8 19.4.3 8.3 1.4 16.6 1.6 25 .3 10.3.1 10.3-10 11.7-6.3.8-8.4 3.6-7.6 10.8 1.9-1 3.5-2.4 5.3-2.8 3.8-.8 9-2.7 11.1-1 2.6 2 3.3 7.3 3.7 11.2.4 4.7-.3 9.5-.6 14.3-.2 3.8-.4 7.7-1 11.5-.1.9-1.9 1.6-3 2.4-.9-.3-1.9-.9-2.8-.9-12.4.2-23.5-3.3-33.8-10.3-7-4.8-14.6-8.6-21.8-13.2-2.9-1.8-6-4.2-3.6-8.5 3.2-5.8 6.5-11.6 9.7-17.4 4.1-9.3 7.8-18.9 12.4-28 2.5-4.9 6.3-9.2 9.9-13.4 2.5-2.9 5.6-5.2 9.6-8.8-4.7 1-8.1 1.7-11.5 2.4-.1-.4-.2-.8-.2-1.3 5.9-3.3 11.7-6.9 17.7-10 3.4-1.8 6.8-3.2 5.8-8.6 1.4 1 2.5 1.3 2.7 1.9 2.4 7.9 7.5 7.3 13.5 4.5.3-.1.5-.1.7-.1z"/><path class="st7" d="M1911.9 1442v131.7c-9.7.7-19.4 1.3-29.2 2 .3-5.7.7-11.3.8-17 .1-5.8 1.6-12.1-6.7-14.6-3.7-1.1-4.2-6.3-.9-8.5 1.9-1.3 5.1-.6 7.7-.9 1.5-.2 3.6-.1 4.4-1 .7-.7-.2-2.8-.4-4.3-.3-.7-.7-1.4-1-2.1.2-.9.4-1.8.6-3.2 1.1 1.3 1.8 2.2 2.6 3.1 1.2-2.3 2.5-4.3 3.3-6.4 2.7-7.3 6.9-14.1 4.9-22.8-1.1-4.9-2.8-10.8.9-16 .5-.7-1-2.7-1.2-3.2 2.4-11.7 4.7-22.7 7.1-33.8 2.4-1 4.7-2 7.1-3z"/><path class="st8" d="M1911.9 1287.2c-.2 0-.4 0-.5.1-5.9 2.7-11.1 3.4-13.5-4.5-.2-.6-1.3-.9-2.7-1.9 1 5.4-2.4 6.9-5.8 8.6-6 3.1-11.8 6.6-17.7 10 .1.4.2.8.2 1.3 3.4-.7 6.8-1.4 11.5-2.4-4 3.6-7.2 5.9-9.6 8.8-3.6 4.2-7.5 8.5-9.9 13.4-4.6 9.1-8.3 18.6-12.4 28-1.3-.7-2.7-1.3-4-2 4.8-12.6 10.3-24.9 14-37.8 2.4-8.5 2-17.9 3.2-26.8.4-2.7 1.7-5.2 2.6-7.8.8 2.5 1.7 5 2.2 7.5.3 1.8.1 3.6.1 6.2 1.3-3.6 1.8-6.6 3.4-9 1.5-2.3 4-5.4 6.2-5.4 2.6-.1 5.2 2.7 7.8 4.2-.2.4-.4.7-.6 1.1 2.2-.3 4.4-.6 7.5-1-4-4.1-7.6-7.8-11.3-11.5 1.5-3.6 4.3-5.1 8.1-5.6 7-1 14-2.3 21.1-3.5.1 9.9.1 20 .1 30z"/><path class="st9" d="M1882.7 1575.7c9.7-.7 19.4-1.3 29.2-2v34.2c-12.7 2-25.5 4-38.2 6-2.9-2.7-5-5.1-1.2-9.2 3.5-3.8 2.7-9.3-1.4-12.8-4.2-3.7-9-6.8-13.5-10.2 2.8-.3 5.6-.3 8.2-1.1 3.7-1 7.2-2.6 10.9-3.9 2.5 3 4.8 4.1 6-1z"/><path class="st10" d="M1911.9 1257.1c-7 1.2-14 2.5-21.1 3.5-3.8.5-6.6 2-8.1 5.6-.8-2.2-1.3-4.6-2.5-6.4-1-1.5-3.1-3.2-4.6-3.2-3.7.1-7.4-1.3-7-4.5.3-3 3.4-7.1 6.1-8 3.4-1.2 4-2.1 3.7-5.4-.1-1.4 1.2-3.7 2.4-4.3 10.3-4.3 20.7-8.4 31.1-12.5v35.2z"/><path class="st11" d="M1903.8 1398.8c1-.8 2.8-1.4 3-2.4.6-3.8.7-7.6 1-11.5.3-4.8 1-9.6.6-14.3-.4-4-1.1-9.2-3.7-11.2-2.2-1.7-7.3.3-11.1 1-1.8.4-3.4 1.7-5.3 2.8-.8-7.2 1.2-9.9 7.6-10.8 10.1-1.3 10.3-1.3 10-11.7-.2-8.3-1.3-16.6-1.6-25-.2-6.5-.2-13.1.8-19.4.3-1.7 4.5-2.8 7-4.2v112.6c-1.3.3-2.6.7-4 1l-14.1-3c3.1-1.2 6.5-2.6 9.8-3.9z"/><path class="st12" d="M1873.7 1613.9c12.7-2 25.5-4 38.2-6v6c-1.7 5.3-3.7 10.5-4.9 16-.7 2.9-1.2 5.4-4.4 5.8-6.3.9-12.6 1.6-18.8 2.3-.7-1-1.3-2-2-3l-9-15.9c.3-.2.6-.4.9-.5 1.4 1.6 2.9 3.2 4.3 4.8.4-.3.7-.5 1.1-.8-1.9-2.9-3.7-5.8-5.4-8.7z"/><path class="st2" d="M0 1181.7c19.4-2.2 38.7-4.3 58.1-6.5 21.2-2.5 42.4-5 63.5-7.6h12.2c-.5 1.2-.8 2.1-1.1 3-18.7 2.5-37.3 5.2-56.1 7.4-25.5 3.1-51.1 5.8-76.6 8.6v-4.9z"/><path class="st13" d="M1883.7 1638c6.3-.8 12.6-1.4 18.8-2.3 3.2-.5 3.7-2.9 4.4-5.8 1.2-5.4 3.2-10.7 4.9-16v39.2c-4.4-2.1-6.6-1.1-7.2 3.8-.3 2.3-1.4 4.1-3.4 2.1-5.6-5.9-10.8-12.1-16.1-18.3-.6-.8-.9-1.8-1.4-2.7z"/><path class="st9" d="M1907.9 1405.8c1.3-.3 2.6-.7 4-1v37.2c-2.3 1-4.7 2-7 3 .5-3.5 1-6.9 1.6-10.4 1.4-8.6-2-13.3-10.7-14.7-4.3-.7-8.6-1.3-12.9-2.1-3.6-.7-6.4-2.5-7.6-6.2 5.6-3.3 10.9-3.9 16.3.2 3.2 2.4 6.8 4.3 10.4 6.1 3.8 2 5.6.9 5.8-3.4.1-3 .1-5.8.1-8.7z"/><path class="st14" d="M1573.1 1350.5c-1.1 4.6-2.3 9.2-3.4 13.8.5.2 1 .3 1.5.5l4.8-16.2c1.4-2.3 3.4-4.5 4.2-7 2-6.6 3.2-7.6 9.9-6.6 2 .3 4.1.8 6 .4 14.4-2.3 27 4.7 40.3 7.6 11 2.4 22 5 33 7.5-3.3 6.4-6.7 12.7-10 19.1-1.2.9-2.7 1.6-3.4 2.8-5.1 8.8-10.6 17.4-14.9 26.6-5.6 11.8-13.5 20.7-24.9 27.1-13.1 7.4-25.5 15.9-38.2 23.9-3.3 1.9-6.7 3.7-10 5.7-12.5 7.5-25 14.9-37.3 22.6-12.2 7.6-24.9 14.5-34.9 25.2-8.4 9-17.1 17.9-25.7 26.7-7.7 7.8-14.8 7.6-22.1-.7-19-22-37.9-44.1-57-66-19.2-22-38.6-43.9-57.9-65.9-1.5-1.7-2.7-3.9-3.3-6-1.8-6.3-3.2-6.8-8.2-2.2-19.1-10.3-38.2-20.5-57.3-30.8 3.6-4.4 7.4-8.6 10.6-13.3 2.3-3.4 4-7.3 5.4-11.2 1.8-5 11.2-12.8 16-14.5 3.1-1.1 6.7-4.4 7.6-7.4 1.8-5.9 5.7-9.3 10.5-12.1 2.3-1.4 4.8-2.4 7.2-3.5 7.1-3 11.6-8.1 13.2-15.8 2-9.4 4.1-10.3 14-10.4 11.3-.1 22.6-1.3 34-1.7 4.1-.2 8.2.4 12.3.7-1 3.6-2.2 7.1-3 10.8-.6 2.7-.8 5.4-1.1 8.1-.1 1.1.3 2.5-.2 3.4-2.6 4.7-5.1 9.4-8.2 13.7-.7 1-3.6 1.3-5.1.9-2.7-.9-4.9-2.8-7.5-3.9-3.6-1.5-6.5-.7-8.2 3.2-2 4.6-4.5 9-6 13.8-5.1 15.4-12.2 29.6-21.2 43-.5.8-.8 1.7-1.2 2.5l.9.9c1.3-1.2 2.9-2.2 3.8-3.7 3.9-6.8 8.1-13.5 11.4-20.6 4.8-10.3 8.9-20.9 13.3-31.3 2.6-6.1 3.6-6.4 9.4-3.3 1.8.9 3.5 2 5.2 3 3.4 2.1 6 1.8 7.5-2.2 2.3-2.1 4.8-4 6.9-6.3 2.3-2.5 4.5-4.5 8.2-2.8 8.1 3.7 14.7 1.8 20.7-4.8 1.9-2.1 5.3-4.1 8-4 12.3.2 24.6 1.1 36.8 1.8 7.2.5 14.5 1.2 21.7 2 5.2.5 10.3 4.8 15.7.5.3-.3 1.5.4 2.3.7 2.6 1 5.2 2.3 7.9 3.1 20.4 6.3 41.1 12.1 57.3 27.2 1.5 1.4 3.5 4.1 3 5.5-2.1 6.6-1.4 13.2-.3 19.9zm-44.1-25.4c3 3.1 5.5 6.2 8.6 8.7 1.1.9 3.4.3 5.2.4-.2-1.6.2-3.8-.7-4.8-3.3-3.6-7-6.8-10.5-10.2-.8 1.7-1.7 3.8-2.6 5.9zm-69.4 166.7l1.5-.9c-2.2-3.1-4.3-6.2-6.5-9.2-.5.3-.9.6-1.4 1 2.1 2.9 4.2 6 6.4 9.1z"/><path class="st3" d="M1629.5 1314.5c-8-.9-14.2-2.3-20.3-2-5.7.3-11.6 1.6-16.8 3.9-14 6.4-13.8 6.7-25.8-3-5.9-4.7-11.7-9.5-17.9-13.8-7.2-5-11.7-11.9-14.4-20-1.7-5.2-5-8.8-9.6-11.7-8.3-5.4-16.2-11.2-24.3-16.8-3.3-2.3-4-4.4-1-7.6 4.7-5 8.6-10.7 13.6-15.3 4.5-4.2 7.5-2.5 11.2 2.5 3.4 4.7 8 8.8 12.7 12.4 5 3.9 10.7 6.9 16.1 10.2 6.1 3.8 12.5 6.5 19.9 5.7 2.1-.2 4.4-.3 6.5.2 7.8 2 14-.6 19.8-5.7 5.1-4.5 7.3-4.1 13.6-1.5 12.3 5.1 24.9 9.4 37.1 14.5 3.3 1.4 6.6 3.8 8.9 6.6 3.8 4.6 6.6 10.1 10.4 14.8 3.1 3.9 2.1 6.7-1.4 9.2-1.9 1.4-3.9 2.7-6 3.7-7.4 3.5-14.8 7-22.3 10.3-3.7 1.7-7.7 2.7-10 3.4zM1120.8 1311.3c-2.9-1.9-6.9-3.2-8.6-5.9-5.2-8-12.2-13-20.4-17.8-6.4-3.7-10.5-11.3-15.6-17.2-.3-.3-.4-1-.3-1.4 1.3-6.1 2.6-12.1 4.2-18.2.8-3.1 3-4.1 6.4-4.1 4.3 0 8.5-1.2 12.8-2 3.3-.6 6.6-1.9 9.8-1.7 5.4.3 8.6-1.8 9.9-6.9.3-1.3.2-2.8-.3-4-4.4-10.8-8.9-21.5-13.4-32.2.6-.3 1.2-.7 1.8-1 2.2 2.9 4.6 5.7 6.6 8.7 2.1 3 3.8 6.3 5.7 9.4 2.4 4 4.6 8.1 7.1 12 .6.9 2.2 1.2 3.3 1.8 2.1 9.4 8.4 11.6 17.2 10.7 6.9-.7 12.4 2.2 17.7 7.2 9 8.4 19 15.7 29 23 6.5 4.8 7 4.5 2.3 10.8-2.7 3.7-6.3 6.7-9.5 10-.8.9-1.5 1.8-2.2 2.7.5.5 1 .9 1.5 1.4 4.1-4.2 8.2-8.3 12.2-12.5 1-1.1 1.6-2.6 2.7-3.6.7-.6 2-.6 3.1-.9.3 1 1 2.3.7 3.1-1.3 3.1-2.8 6.1-4.5 8.9-3.3 5.4-5.7 11-4.9 17.5-3.3-3-6.7-6-10-9.1-15.3-15.5-30.6-30.9-46-46.4-.2-.2-.5-.6-.8-.6-1.5-.1-3.1-.2-4.6-.3.1 1.5-.4 3.5.4 4.5 2.4 3 5.3 5.6 8 8.4 3.7 3.7 7.4 7.5 10.4 10.5-6 6.3-11.8 11.6-16.6 17.7-3.3 4.2-6.2 4.1-10.3 1.9-8.9-4.9-16.6-10.8-22.2-19.7-2.8-4.5-7.9-7.5-12-11.1-.6.5-1.1.9-1.7 1.4 1.5 3 2.6 6.3 4.6 8.9 3 3.8 6.5 7.3 10.3 10.3 6.4 5 11.5 11.9 20.2 13.5 1.1.2 1.9 2.1 2.9 3.2-2.2 3.1-4.6 6.1-6.9 9.1z"/><path class="st6" d="M1264.5 1358.6c19.1 10.3 38.3 20.6 57.3 30.8 4.9-4.6 6.3-4.1 8.2 2.2.6 2.2 1.8 4.3 3.3 6 19.2 22 38.7 43.9 57.9 65.9 19.1 21.9 38 44 57 66 7.2 8.4 14.4 8.6 22.1.7 8.7-8.8 17.3-17.7 25.7-26.7 10-10.7 22.7-17.6 34.9-25.2 12.3-7.7 24.8-15.1 37.3-22.6 3.3-2 6.7-3.8 10-5.7 1.3.7 2.7 1.3 4 2-6.7 4.4-13.4 8.7-20.1 13.1-.7.3-1.3.7-2 1-7 4.2-14 8.4-21.1 12.8.9 1.5 1.7 2.7 3 5-2.8-.5-4.4-.9-6.1-.9-1.7 0-3.9-.2-5.1.7-10.5 7.6-22 14-30.8 23.9-7.9 8.9-16.5 17.2-25.2 25.2-4.7 4.4-6.6 9-6.3 15.4.2 6.5 4.1 10.5 7.9 14.6 12.3 13.7 25.5 26.5 34.8 42.6 5.8 10.1 14.2 17 25.2 20.3 9.1 2.7 18.5 4.4 27.9 6.4 9.7 2.1 19 5.5 25.4 13.2 6 7.1 10.6 15.3 15.8 23-1.3.3-2.7.7-4 1-.8-1.5-1.6-2.9-2.4-4.4-7.4-13.6-19-22.4-33.4-27.2-8.1-2.7-16.6-4.2-25-5.3-14-1.8-24.2-8.8-31.5-20.6-4.2-6.7-8.3-13.4-13.3-19.4-9-10.9-18.7-21.4-28.1-32-5.6-6.3-13.6-6.7-19.6-.5-14.3 14.8-28.5 29.7-42.6 44.6-12.9 13.6-25.7 27.3-38.6 40.8-13.5 14.1-27.2 28.1-40.8 42.2-1.7-.3-3.4-.7-5.1-1 .4-.5.8-1.1 1.2-1.6 19.6-20.6 39.1-41.3 58.7-61.8 17.8-18.6 35.7-37.1 53.6-55.7 3.7-3.9 7.5-7.7 10.9-11.8 6.1-7.2 5.9-13.8-.4-20.9-12.7-14.4-25.5-28.7-38.1-43.2-13.9-16-27.8-32.1-41.4-48.3-9.1-10.9-17.4-22.4-26.6-33.1-5.2-6-10.3-13.1-20.4-10.6-3.4.9-3.4-2.6-4.3-4.9-.7-1.9-1.8-4.2-3.4-5.2-7.3-4.3-14.8-8.4-22.4-12.3-14.6-7.5-29.2-14.8-43.8-22.2l4-4c4.7 2.3 9.4 4.7 14.1 7 .4 0 1.1.3 1.7.7z"/><path class="st3" d="M1573.1 1350.5c-1.1-6.7-1.8-13.4.5-20.2.5-1.4-1.5-4.1-3-5.5-16.2-15.1-36.8-21-57.3-27.2-2.7-.8-5.2-2.1-7.9-3.1-.8-.3-1.9-1-2.3-.7-5.4 4.3-10.5 0-15.7-.5-7.2-.8-14.5-1.5-21.7-2-12.3-.8-24.6-1.6-36.8-1.8-2.7 0-6.1 1.9-8 4-5.9 6.6-12.6 8.5-20.7 4.8-3.7-1.7-5.9.3-8.2 2.8-2.1 2.3-4.6 4.2-6.9 6.3 2.1-3.6 4-7.3 6.3-10.8 2.1-3.1 5.4-4.1 8.8-2.4 8.2 4.2 14.5 1.6 19.7-5.2 1.3-1.7 2.8-3.3 4.1-5.1 3.1-4.1 6.8-5.7 11.7-3.1 1 .5 2.2.8 3.3 1.1 8.5 2.3 8.4 1.7 10.6-6.8 3.5-13.9 7.8-27.7 15.8-39.9 1.7-2.6.9-3.8-.8-5.4-2.3-2.2-4.6-4.4-6.5-6.8-.8-1-.7-2.6-1.1-3.9l1.5-.6c.7 1.2 1.3 2.4 2.1 3.5 1.8 2.3 3.5 4.9 5.7 6.8 3.3 2.7 7.3 4.4 8 9.6.2 1.5 3.1 2.8 4.9 4 15.3 10 30.6 19.7 45.7 29.9 2.7 1.8 5.2 5 6.2 8 4.2 12.7 13.8 20.6 23.8 28.2 6.9 5.2 13.9 10.4 20.7 15.9 1.3 1 2.6 3.4 2.3 4.8-1.1 7.1-3 14.2-4.8 21.3z"/><path class="st14" d="M1214.4 1275.7c2.6-.6 4.7-1.4 6.9-1.5 7-.2 14-.5 21 .1 3.8.4 8.1 1.8 10.8 4.2 9.8 8.8 19.1 18.2 28.6 27.3 1.7 1.6 3.3 3.3 5 5 6.5 6.5 6.5 6.9-1 12.7-8.7 6.8-24.2 6.2-35.1-.7-10.5-6.7-17.9-15.6-20.5-27.9-1.6-7.6-5.7-12.6-12.6-15.7-.8-.3-1.4-.9-2.1-1.4-.1-.1-.2-.5-1-2.1z"/><path class="st14" d="M1262.5 1357.6c-4.7-2.3-9.4-4.7-14.1-7-1.5-1.1-2.9-2.3-4.4-3.2-6.9-4-13.8-7.9-20.7-11.9-4.9-5.3-9.7-10.6-14.6-15.7-3.1-3.2-6.3-6.2-9.5-9.4 3.4-2.4 3.6-5.5 2.1-9.4-1.2.9-2.1 1.6-3.1 2.3.4-7.8 5.9-12.7 10.5-18.1.9-1.1 5-.9 6.4.2 3.9 3.3 7.6 6.9 10.4 11.1 3.1 4.9 4.6 10.8 7.7 15.7 7.1 11.2 25.6 22.5 44.8 22.3-2.8 9.5-9.7 15.9-15.5 23.1zM1259.2 1275c1.7-.3 3.1-.8 4.5-.8 10.6-.4 21.3-.7 31.9-1.1 9.6-.3 19.3-.8 28.9-1 5.8-.1 6.5 1.2 6 6.9-.7 7.8-4.2 12.8-11.7 15.9-4.5 1.8-8.5 5.1-12.3 8.3-1.8 1.6-2.5 4.5-3.9 6.7s-2.8 4.6-4.8 6c-.7.5-3.5-1.7-5-3-4.9-4.3-9.9-8.6-14.2-13.3-6.4-7-12.4-14.4-18.5-21.7-.5-.6-.5-1.5-.9-2.9z"/><path class="st3" d="M1678.7 1332.4c-1.1-.3-2.2-.9-3.3-.9-15.5-.7-31-1.6-46.5-2-10-.3-20 0-29.9-.1-3 0-6.1-.3-8.9-1-1.9-.5-4.1-1.8-4.8-3.4-.4-.9 1.4-3.7 2.9-4.6 8.1-4.7 16.7-7.5 26.3-5-2.8.8-5.6 1.6-8.4 2.5 0 .6-.1 1.3-.1 1.9 2.1.6 4.3 1.1 6.4 1.7-.6 1.1-1.1 2.2-2.1 3.9 2.8-.8 5-1.4 7.1-2 1.4.8 2.8 2.4 4.2 2.4 1.9 0 4.1-.8 5.5-2 .6-.5-.3-2.9-.6-4.4l-1-1v-2c7.6 1.2 14-2.3 20.5-5.3 8.5-3.9 16.9-8 25.4-11.8 3.8-1.7 6.3.3 8.2 3.6 3.7 6.5 7.5 13 11.2 19.5-4.1 3.3-8.1 6.7-12.1 10zm-91.5-8c7.6 3.4 14.5 0 15.3-7.7-5.3 2.6-9.8 4.9-15.3 7.7zM1530.8 1226.9c3.8.4 7.8.2 11.4 1.2 12.4 3.4 24.7 7 37 11 5.1 1.6 9.8 4.2 14.7 6.4 2.6 1.2 2.3 3 .6 4.8-3.4 3.3-7.5 4-12 3.7-4.8-.3-9.6.1-14.4-.3-2.6-.2-5.5-.6-7.6-2-8.7-5.7-17.1-11.6-25.6-17.7-1.9-1.3-3.2-3.4-4.8-5.2.1-.6.4-1.3.7-1.9zM1669.6 1350.5c-11-2.5-22-5.1-33-7.5-13.4-2.9-26-9.9-40.3-7.6-1.9.3-4-.2-6-.4-6.7-1-7.9 0-9.9 6.6-.8 2.5-2.8 4.7-4.2 7 1.1-5 1.9-10.1 3.4-15 .9-3 3.3-4.3 6.8-3.1 2.1.8 4.6 1 6.9 1 26-.6 51.8.9 77.4 4.9 1.6.3 3.3.1 5 .2-2.1 4.6-4.1 9.3-6.1 13.9z"/><path class="st13" d="M1669.6 1350.5l6-14.1c1-1.3 2-2.7 3-4 4-3.3 8-6.7 12.1-10l2-2c4-3.3 8.1-6.7 12.1-10 1-.7 2-1.3 3-2 1.6-.2 3.5.1 4.8-.6 12.5-6.7 24.8-13.7 37.3-20.4 1.5-.8 3.6-.4 5.4-.5-.9 1.5-1.5 3.6-2.9 4.5-5.8 3.6-11.8 7-17.8 10.2-6.6 3.6-13.3 7-20 10.5-2.6 1.4-4.6 2.8-4.5 6.4.1 3-2 4-5.3 3.4-1.9-.4-4.1.5-7.6 1 3.5 3.9 5.9 6.5 8.3 9.2-.2.3-.4.6-.5.9-1.6-1.1-3.1-2.2-4.7-3.3-2.1-1.5-3.3-5.2-7-2.5s-6.6 5.8-5.3 10.9c.3 1.1 1 2 1.6 3.4-2.4 1.3-4.5 3.3-6.8 3.5-5.8.7-7.8 4.3-9 9.2-.5 1.9-1.6 3.7-2.4 5.5-3 4-6 8-9 12.1-1-.7-2-1.3-3-2 3.5-6.5 6.9-12.9 10.2-19.3z"/><path class="st15" d="M1223.3 1335.5c6.9 4 13.8 7.9 20.7 11.9 1.6.9 2.9 2.1 4.4 3.2l-4 4c-9-5.1-18.5-9.5-26.8-15.5-7.6-5.6-14.5-12.5-20.7-19.7-5.2-5.9-14.5-4.5-18.7 1.8-7.9 11.8-16.8 22.9-25.3 34.3-1-.7-2-1.3-3-2 10.9-15.6 19.9-32.7 36.3-44.6-2.1-2-4.6-4.3-7.1-6.7 2-.7 4-1.3 6-2 3.3 3 6.7 6 10 9.1 9.4 8.8 18.8 17.5 28.2 26.2z"/><path class="st14" d="M1432.3 1267c-3.3 4.6-6.2 8.1-8.4 12-5.5 9.3-14.1 11.4-23.9 11.2-4.8-.1-5.9-1.8-4.2-6.3.2-.5.3-.9.5-1.4 5.8-14.7 10.2-17.4 26-16.2 2.7.2 5.5.3 10 .7z"/><path class="st3" d="M1704.8 1310.3c-4 3.3-8.1 6.7-12.1 10-3.2-5.8-6.2-11.7-9.6-17.4-5.5-9.5-11.7-18.7-16.8-28.4-5.2-9.9-9.5-20.2-14.1-30.4-.4-.8 0-1.9 0-3.8 1.3 1.2 2.3 1.8 2.7 2.6 2.8 5.8 5.5 11.8 8.3 17.6 1 2.1 2 4.2 3.2 6.2 5 8.1 10 16.1 15.1 24.1.7 1.1 1.4 2.8 2.4 3.1 7.8 1.9 11.1 9.2 16.7 13.7 1.3 1.1 2.8 1.9 4.2 2.7z"/><path class="st15" d="M1612.3 1321.4c-2.1-.6-4.3-1.1-6.4-1.7 0-.6.1-1.3.1-1.9 2.8-.8 5.6-1.6 8.4-2.5 3.7.3 7.4.7 11 1v2c-4.4 1.1-8.7 2.1-13.1 3.1z"/><path class="st16" d="M1198.2 1303.3c.9-.7 1.8-1.4 3.1-2.3 1.5 3.9 1.3 7-2.1 9.4-.3-2.4-.7-4.7-1-7.1z"/><path class="st17" d="M1152.9 1355.6c8.5-11.4 17.4-22.5 25.3-34.3 4.2-6.4 13.5-7.8 18.7-1.8 6.2 7.1 13.1 14.1 20.7 19.7 8.3 6 17.8 10.4 26.8 15.5 14.6 7.4 29.3 14.7 43.8 22.2 7.6 3.9 15.1 8 22.4 12.3 1.6 1 2.7 3.3 3.4 5.2.8 2.3.9 5.8 4.3 4.9 10.1-2.6 15.2 4.6 20.4 10.6 9.2 10.7 17.5 22.3 26.6 33.1 13.6 16.3 27.5 32.3 41.4 48.3 12.6 14.5 25.4 28.8 38.1 43.2 6.2 7.1 6.4 13.8.4 20.9-3.4 4.1-7.2 7.9-10.9 11.8-17.8 18.6-35.8 37.1-53.6 55.7-19.6 20.5-39.2 41.2-58.7 61.8-.5.5-.8 1.1-1.2 1.6l-18.1 18.1c-3.1-.4-6.1-1.1-9.2-1.2-4.7-.2-9.3 0-14 0-11.9 0-23.9-.1-35.8.1-2.8 0-5.6 1.1-8.4 1.7 2 2.5 4.1 4.9 6.1 7.4-.4.3-.7.7-1.1 1-6.5-3.7-10.7-10.7-20.3-9.8-12.2 1.1-24.6-.7-36.9-.8-16.1-.1-32.3.5-48.4.4-13.7 0-27.4-.9-41-.7-6 .1-13.1-1-17.1 5.8h-1c-.6-1.6-1-4.5-1.9-4.6-7-1.1-14.1-1.7-21.2-2.4h-1c-3.9-4.8-9.1-3.2-14.1-3h-6c-1.4-.4-2.7-1.1-4.1-1.3-8.5-1.1-17.1-2.2-25.6-2.9-6.8-.6-13.7-.6-20.5-.8-3.1.4-6.2.8-10.4 1.3 1.4-2.4 2.3-3.9 3.2-5.5-.6-.2-1.3-.6-1.4-.5-6.4 6.7-14.5 1.5-21.6 2.9-2.5.5-5.6.3-7.5 1.6-7.7 5.6-16.5 6.8-25.6 7.2-5 0-9.9.1-14.9 0-10-.3-20-.6-29.9-1.3-21.3-1.5-42.5-3.2-63.8-4.8 1.7-1.8 3.3-3.7 5.1-5.5 38.6-39 77.3-78 116-116.9 17.9-18.1 36-36 53.9-54 2.3-2.3 4.5-3.7 8-2.8 4.2 1 7.8-.7 10.8-3.8 3.6-3.7 7.2-7.6 11.3-10.7 28.7-22.1 57.6-44.1 86.4-66.1 6.2-4.7 13.1-8.7 16.1-16.7 2.3-6.1 5.1-12 8-17.9 3.6-7.4 7.5-14.7 12-23.4 1.3 3 1.8 4.3 1.9 4.4 1.2-3.1 2.2-7.1 4.1-10.4 2.8-5.2 6.6-9.9 10-14.8zm-40.4 284.2c4.1 5.9 1.4 10.2-2.6 14-2.7 2.6-5.7 5-8.9 7-2.3 1.4-2.9 2.2-1.7 5 2 4.5 5.2 3.8 7.6 1.9 3.8-3.1 8.5-6.5 9.9-10.8 2-5.8 5.6-9.7 9.6-13.7 3.6-3.6 5.4-7.6 5.7-12.9.2-4.1 2.3-8.2 3.6-12.6-1.5-1-4.3-2.7-7.3-4.6-.4 1.2-1 2.1-.9 2.7 2 6.7-1 12.4-3.3 18.3-3.3 8.8-3.3 8.8-11.7 5.7zm58.9-44.4c-.3-.3-.6-.5-.8-.8-2.3 3.3-4.3 6.8-6.9 9.8-2.7 3-5 7.8-10.6 4.4-.7-.4-3.1.4-3.3 1-.3 1.2 0 3.5.8 3.9 2.5 1.3 6 3.3 7.9 2.4 3.4-1.6 9.2-.9 9.1-7.4-.1-4.8 2.1-8.2 7.5-9 3.2-.5 5.6-2.6 5.6-6-3.2.6-6.2 1.1-9.3 1.7zm126.5 19.2c0-.4.1-.8.1-1.2-5.7-2.1-11.3-4.2-17-6.1-.7-.2-1.9.8-2.9 1.2.5.7.9 2 1.5 2.1 6.2 1.4 12.3 2.7 18.3 4z"/><path class="st2" d="M1325.9 1687.3c13.6-14.1 27.3-28 40.8-42.2 13-13.5 25.7-27.2 38.6-40.8 14.2-14.9 28.4-29.8 42.6-44.6 5.9-6.1 14-5.8 19.6.5 9.4 10.7 19 21.1 28.1 32 5 6 9.2 12.8 13.3 19.4 7.4 11.8 17.5 18.9 31.5 20.6 8.4 1.1 17 2.6 25 5.3 14.4 4.8 26 13.6 33.4 27.2.8 1.5 1.6 2.9 2.4 4.4 6 10.5 11.1 21.7 20.1 30.2-5.8.3-11.6.2-17.3.8-7.1.8-14.2 2.1-21.2 3.4-3.3.6-6.6 1.5-9.6 2.8-1.1.5-1.5 2.6-2.2 4-2.6-.8-5.4-2.6-7.9-2.3-8.1 1-16.2 2.3-24 4.4-9.5 2.5-9.4 2.9-12.3-6.1v-16.6h-1c-.7 7.5-1.4 15.1-2.1 22.6-5.1 2.3-10.3 4.4-15.2 7-1.5.8-2.5 2.8-3.2 4.6-1.8 4.7-3 9.6-5 14.3-1 2.4-4 4.3-4.2 6.6-.4 5.4-3.4 7.8-7.6 10.1-3.7 1.9-4 6.9-1.1 9.3 2.7 2.2 5.5 4.3 8.2 6.5-2.5 3.4-6.6 3.5-9.9-.2-6.1-6.9-14.3-9.8-22.8-9.6-12.6.2-25.3 1.9-37.9 3.3-19.8 2.3-37.1-1-49.4-18.8-6.4-9.3-14-17.9-21.1-26.8-4.5-5.6-4.5-6.7 2.1-9.8 12.7-6 25.5-11.8 38.3-17.6 1.5-.7 2.9-1.4 4.1-2.9-1.9.4-3.9.5-5.7 1.2-12.8 5.8-25.6 11.7-38.2 17.8-3.8 1.8-5.9 2.9-9.3-1.6-4.6-6.2-11-11.1-16.8-16.5-.7-.7-2.2-.6-3.3-.9.2-.3.2-.7.2-1zm126.3-33.1c-1.4-1-3.1-2.4-4.7-3.5-1.7 3.5-3.3 6.7-4.9 9.8.2.2.5.3.7.5 3-2.3 5.9-4.5 8.9-6.8zm47.5 27.1c-7.1 2.2-8 4.3-4.4 9.2 1.4-2.9 2.7-5.7 4.4-9.2zm-100.5 41.6l-2.4.6c.4 2.5.9 5 1.3 7.5.8-.1 1.6-.3 2.4-.4-.5-2.5-.9-5.1-1.3-7.7z"/><path class="st17" d="M456.4 1474.2c8.7-3.3 17.4-6.8 26.2-9.8 22.3-7.8 44.6-15.4 66.9-23 5.1-1.8 9.8-3.9 13-8.8 1.3-2 3.7-3.3 5.9-5.2-.6 2.7-1 4.9-1.7 8 1.3-.8 1.7-.9 2-1.2 1.7-1.4 3.4-2.8 5.1-4.3-.2 2.1-.3 4.3-.6 6.4-.5 3.5-1.2 7-1.7 10.5-.5 3.9-1 7.8-1.4 11.6.5.1 1 .2 1.6.3.6-3.8 1.1-7.7 1.8-11.5.6-3.5 1.1-7 1.8-10.4.6-2.9 1.6-5.7 2.6-9.2 1.5.3 3.1.8 4.6 1 3.8.5 7.6.7 11.3 1.5 5.1 1.1 10.2 2.6 15.3 3.9-3.4 4.9-7 9.7-10.2 14.7-3.2 5.1-6.6 10.2-8.7 15.7-1.1 2.9.2 6.9 1 10.3.5 2 2.3 3.6 3.3 5.6 6.8 13.2 13.9 26.2 20.1 39.7 2.1 4.6 2.2 10.4 2.1 15.6-.2 5.8-1.4 11.6-2.8 17.2-.8 3.2-3.1 5.9-4.7 8.9-14.6 7.7-28.4 17-44.4 21.6-3.4 1-6.8 1.6-10.2 2.5-5.3 1.4-10.6 2.5-15.7 4.4-6.5 2.5-12.8 5.7-19.1 8.7-2.5-1.3-4.9-2.9-7.5-3.9-10.8-4.3-21.6-8.6-32.6-12.6-3.4-1.2-7.2-1.4-12.5-2.4-3.1-3.7-3.2-3.8-9.2 0-3.4 2.1-6.4 4.9-9.6 7.2-1.9 1.3-4 2.3-4.9 2.9 0-2.4.8-4.9-.1-6.7-1.1-2.3-3.5-4.1-5.3-6.1 1.4-.1 2.3.4 2.7 1.1 2.8 4.5 7.1 3.9 11.2 2.9.8-.2 1.9-3.2 1.7-3.3-4.2-2.9-8.3-6.6-13-8-12-3.5-24.2-6-36.4-8.8-3.1-.7-4.1-2.5-3.1-5.5 5-4.7 9.3-9.7 10.6-16.9 1.1-5.8 3-11.5 4.5-17.3 1.6-9.6 3.8-18.6 13.8-23.4 5.8-2.8 11.1-6.8 16.7-10 5.4-3.2 8-8.1 9.6-13.9zm-30.2 66.3c2.7 8.9 9.5 14.8 15.8 21-5.3-6.9-10.5-14-15.8-21-1.1-5.4-2-10.8-3.4-16.2-2-8.1 3.2-13.3 6.6-19.2.5 0 1 0 1.4.1 3.7 15.5 7.3 31.1 11 46.6.5-.1.9-.2 1.4-.3-3.1-13.3-6.1-26.7-9.4-40-2.2-9.1-2.4-9 5.6-13 1.2-.6 2.4-1.4 4.7-2.8-21.5 4.9-28.8 25.1-17.9 44.8zm92.4 38.5c-3.3-1.7-6.4-3.8-9.9-4.9-1.2-.4-3.2 2-4.9 3.1.8.9 1.6 1.8 2.3 2.5 5.1-8.3 7.9 1.7 12.5-.7zm-14.9-103c-.1-.5-.1-1-.2-1.4l-27.9 4.8c.1.4.1.7.2 1.1 9.2-1.5 18.5-3 27.9-4.5zm-43.8 35c.7 2.7 1.5 5.7 2.3 8.7.7.3 1.4.6 2.1.8-4.1-8 2.3-7.9 6.4-10.2-3.7.3-6.7.4-10.8.7z"/><path class="st2" d="M1907.9 1405.8c0 2.8 0 5.7-.1 8.5-.2 4.3-2 5.4-5.8 3.4-3.6-1.8-7.2-3.7-10.4-6.1-5.4-4.1-10.7-3.5-16.3-.2 1.2 3.8 4 5.5 7.6 6.2 4.3.8 8.6 1.4 12.9 2.1 8.8 1.4 12.2 6.1 10.7 14.7-.6 3.5-1.1 6.9-1.6 10.4-2.3 11.1-4.6 22.2-7.1 33.8.2.6 1.7 2.6 1.2 3.2-3.7 5.2-2 11.1-.9 16 2 8.8-2.2 15.5-4.9 22.8-.8 2.1-2.1 4.1-3.3 6.4-.8-1-1.5-1.8-2.6-3.1-.3 1.4-.5 2.3-.6 3.2-1.2-.1-2.3-.4-3.5-.3-1.3.2-2.7.7-3.9 1.2-.1.1.2 2.1.5 2.1 1.2.1 2.4-.1 3.6-.3 1.4-.2 2.8-.5 4.3-.7.2 1.5 1 3.6.4 4.3-.8.9-2.9.8-4.4 1-2.6.3-5.8-.4-7.7.9-3.3 2.2-2.8 7.4.9 8.5 8.3 2.5 6.8 8.8 6.7 14.6-.1 5.7-.5 11.3-.8 17-1.2 5-3.5 4-6 1-.9-2.8-3.2-6.2-2.3-8.3 2.7-6.5-1.6-12.2-1.1-18.3.1-1.3-1.1-2.6-1.8-3.9-.2.4-.4.7-.6 1.1-2.1-.5-4.9-.2-6-1.5-2.2-2.7-3.4-6.3-5.3-9.4-.9-1.5-2.6-3.5-3.8-3.4-1.6.1-4.4 2-4.4 3.1 0 7-6.4 12.8-3.3 20.3.3.7-.4 1.9-.7 2.8-1.1 2.6-2.2 5.2-3.4 7.7-.6 1.3-1.4 2.5-2.2 3.8-.6-.1-1.2-.2-1.7-.3-.1-2.5-.8-5.1-.3-7.4.7-3.2-.1-5.3-2.6-6.8-2.4-1.4-4.9-2.7-7.5-3.7-6-2.4-12.5-3.9-13.2-12.3-.3-3.4-3.4-4.1-6.6-2.8.5 1.1.9 1.9 1.3 2.9-8.5 1.2-9.4 2.9-4 9.2 3.9 4.6 4.5 12.4 12.5 13 .1 0 .2.2.4.3 3.2 2.9 6.5 5.8 9.7 8.7 3.4 3 7.9 5.8 1.9 11.1 2.2-.2 3.6-.8 5.1-1.3 2.2-.8 4.5-2.2 6.7-2 4.8.4 9.5 1.7 14.3 2.6 4.5 3.4 9.3 6.5 13.5 10.2 4.1 3.5 4.8 9.1 1.4 12.8-3.8 4.1-1.7 6.4 1.2 9.2 1.7 2.9 3.5 5.8 5.2 8.7-.4.3-.7.5-1.1.8-1.4-1.6-2.9-3.2-4.3-4.8-.3.2-.6.4-.9.5l9 15.9c-7.7 1.9-15.3 3.8-23 5.7-2.4.6-4.8.9-7 1.8s-4.1 2.3-6.2 3.6c-4.6-6.8-4.2-10.9 2-19.1 8.1-4.7 9.6-17.1 2.1-24.3-2.7-2.6-6.9-3.8-9.3-6.5-2.4-2.7-3.3-6.5-5.5-11.2-2.1 5.1-1.7 8.8.9 11.7 3.2 3.6 6.9 6.7 10.4 10.1 6.7 6.4 6.8 12.2.5 19.1v-.1c-1.3-.9-2.6-2.5-3.9-2.5-2.3.1-4.5 1-6.7 1.8-12.2 4.9-24.4 9.8-36.6 14.8-2-17.4-5.1-34.7-5.7-52.2-.6-18.1.9-36.4 1.9-54.6.4-8.2.9-16.4 2.6-24.4 6.1-28.1 12.9-56 19.4-84 .4-1.1.8-2.2 1.1-3.3 3.5-12 6.8-24.1 10.6-36 2.1-6.8 8.7-9.5 14.2-6.3 10 5.8 20 11.4 29.8 17.6 6.4 4.1 13 6.7 20.7 6 4.3 1.2 9 2.2 13.7 3.2zm-32.2 116.3c3.4-3.7 4.3-7.6 2.5-11.9-1.5-3.7-3.7-3.7-6.7-1.1-2.9 2.5-1.2 5.1-1.4 7.7-.5 5.5 2.1 8.4 8.4 8.7-1-1.3-1.8-2.2-2.8-3.4zm-61-20c-2.9 5.7-5.1 11.3-5.4 17.6-.1 3.8-.8 7.5-1.2 11.3-.1 1.2-.4 3 .2 3.3 1.2.7 2.9 1 4.2.6.8-.3 1.5-2.1 1.5-3.2.3-9.5.5-19.1.7-29.6zm42.6 12c.3-.1.5-.3.8-.4-5-10.1-10.2-20.1-14.8-30.4-6.8-15.1-17.9-28.4-20.2-45.5.4 5.1.7 10.6 2.9 15 9.5 19.5 19.5 38.8 29.4 58.1.6 1.2 1.3 2.2 1.9 3.2zm-15.1 20c-2.1-8.7-4-16.6-6.1-24.4-.2-.9-1.8-1.5-2.7-2.3-.2 1.1-.8 2.3-.7 3.4.2 3.1.3 6.3 1.2 9.1 1.8 5.2 3.5 10.5 8.3 14.2zm33.8-1.7c-2-1.6-3.7-3.4-4.1-3.1-2.6 1.6-4.9 3.7-7.3 5.6 1 1.1 2.7 3.3 3 3.1 2.7-1.5 5.1-3.4 8.4-5.6zm-72.6-9.1c0-1.7.1-2.7 0-3.6-.3-1.7-.8-3.3-1.1-5-.7.2-2.1.4-2.1.6.1 1.9.2 3.8.6 5.7.2.6 1.3 1.1 2.6 2.3z"/><path class="st17" d="M179.9 1485.3c12.9 1.4 25.9 2.7 38.8 4.2 21.7 2.5 43.5 5 65.2 7.8 14.9 1.9 29.8 4.2 44.6 6.8 8.2 1.4 15.5.3 22.4-4.4 7.9-5.4 15.9-10.5 24.1-15.4 2.6-1.6 5.9-2.6 8.9-2.9 16.1-1.6 32.2-2.7 48.3-4.2 5.6-.5 11.2-2 16.8-2.9 1.7-.3 3.6 0 5.4 0-3.3 7.3-8.7 12.3-15.8 15.8-3.6 1.8-6.8 4.2-10.4 6-10.7 5.2-13.7 14.6-14 25.5-2.4 7-3.8 14.6-7.4 21-3.4 6.1-9 10.9-13.7 16.2-11.6-1.8-23.2-4-34.9-5.4-15.3-1.9-30.7-3.2-46.1-4.7-2.6-.3-5.3-.2-8-.4-10.3-.6-20.5-1.3-30.7-1.9-4.1-.2-8.3-.4-12.4-.5-9.4-.2-18.9-.4-28.3-.3-11.4.1-22.8.5-34.2.6-4.5.1-8.9-.3-13.4-.4-.9-8.6-2.1-17.2-2.8-25.8-1-11.8-1.6-23.2-2.4-34.7z"/><path class="st5" d="M53.3 1500.3c2.6-6.4 5.2-12.8 7.7-19.2.5 0 1.1 0 1.6.1.6 4.9.7 10 1.9 14.8.9 3.7 3.2 7 4.9 10.4 8 4.7 16.1 9.4 24.1 14.1.3-.5.6-1 .9-1.6-3.7-1.9-7.5-3.5-11-5.7-4.5-2.8-8.6-6-12.9-9-4.4-6.4-4.7-13.9-6.5-21.1-2.8-10.8 1.5-19.5 4.9-28.7 2-5.3 5.1-10.1 7.5-15.3 1.7-3.7 3.6-4.2 6.8-1.7 14.4 11.1 29.4 21.6 43.3 33.3 11.9 9.9 24.3 17 40.4 14.6 3.6-.5 7.3-.1 11 0 1.2 14.8 2.7 29.6 3.7 44.4.8 12.8.8 25.6 1.4 38.4.3 6.3 1.1 12.6 1.6 18.9.8 10.6 1.5 21.3 2.3 31.9-4.2-.7-8.5-1.3-12.7-2-.3.7-.5 1.3-.8 2 3.8 2.3 7.6 4.7 11.4 7-3.1-.6-6.3-1-9.4-1.8-4.1-1-8.2-2.6-12.4-3.2-6-.9-11.1-2.4-14.6-8.1-11.9-19.3-24.4-38.2-36.3-57.4-5.4-8.7-12.9-15.3-20.6-21.7-7.4-6.2-15.3-11.9-23-17.8-.9-.7-2.2-1.4-2.5-2.4-1.8-6.7-8.3-8.9-12.7-13.2z"/><path class="st17" d="M526.7 1597.8c3.8-1.7 7.5-3.7 11.5-4.9 9.9-3.2 19.9-6.2 30-9 12.7-3.5 23.9-9.9 35.1-16.6 1.8-1.1 3.9-1.8 5.9-2.6 6.6 3.4 13.2 6.8 19.9 10.2 3.4 1.7 7.2 3 10.2 5.2 22.3 16.5 44.9 32.7 66.5 50 22 17.6 45.6 32.8 69.5 47.6 5.5 3.4 11.2 6.4 16.9 9.6 1.3 1.3 2.6 2.5 3.8 3.9 1.5 1.7 2.9 3.4 4.3 5.2-7.6-1-15.2-2-22.8-2.9-8.6-1.1-17.2-2.7-25.8-3-22.1-.7-44.2-.7-66.2-1.2-3.9-.1-7.8-1-11.7-1.5.1-.8.1-1.6.2-2.4h60.5c0-.5.1-1 .1-1.6-4.9-1.8-9.7-3.8-14.7-5.3-16.4-4.8-33.6-6.9-49-15.5-7-4-15.2-6.1-22.7-9.2-7.7-3.2-15.2-6.8-22.9-10-5.9-2.5-12-4.7-18-7-.9-.4-1.9-.8-2.6-1.5-5.1-5.5-11.8-7.3-18.7-9-3-.8-6-2.1-8.9-3.3-8.5-3.5-16.9-7-25.4-10.5-7.1-2.9-14.3-5.6-21.2-8.9-1.9-.9-2.6-3.8-3.8-5.8z"/><path class="st14" d="M1241.4 1712.4c-2-2.5-4.1-4.9-6.1-7.4 2.8-.6 5.6-1.7 8.4-1.7 11.9-.2 23.9-.1 35.8-.1 4.7 0 9.3-.2 14 0 3.1.1 6.2.8 9.2 1.2-4.3 4.8-8.6 9.8-13 14.5-9.5 10-19.3 19.8-28.8 29.9-7 7.5-13.7 15.3-20.5 22.9-1.6 1.5-3.3 2.9-4.6 4.5-3.9 4.8-7.6 9.7-11.4 14.6 1.7-4 3.5-8 5.4-12.6-2.8-.4-6-1.2-9.2-1.2-17.1.1-34.3.6-51.4.7-5 0-10.4.4-14.9-1.4-4.9-1.9-9.4-5.6-13.3-9.3-6.5-6.1-12.2-13.3-18.8-19.3-5.4-4.9-11.5-9.1-17.7-12.9-3.8-2.3-6.7-4.8-7.6-9.3-1.4-7.5-5.4-12.2-13.4-13.5-2.5-.4-4.7-2.4-7-3.6 4-6.8 11-5.7 17.1-5.8 13.7-.2 27.4.7 41 .7 16.1.1 32.3-.5 48.4-.4 12.3.1 24.7 1.9 36.9.8 9.6-.9 13.8 6.1 20.3 9.8 3.5 2.7 6.9 5.4 10.4 8.1.4-.5.8-1 1.1-1.5-1.5-4.8-6.7-5.3-10.3-7.7z"/><path class="st5" d="M953.9 1704.4c-.7 9.4-1.3 18.8-2 28.1-.7 1.6-1.7 3.2-1.9 4.9-.7 5.8-2.7 7.4-8.5 6.8-3.2-.4-6.3-.6-9.5-.6-22.9-.4-45.8-.5-68.7-1.1-9-.2-18-1.5-27-2.2-4.4-.4-7.3-2.3-9.1-6.6-1.3-3-3.9-5.5-6-8.2l-2 2c.4 2.1.7 4.3 1.3 6.3 1 3.4-.3 4.8-3.6 4.7-1.5 0-3-.2-4.5-.4-11.4-1.5-22.7-3-34.1-4.7-4.5-.7-8.9-1.8-14.7-3 2.6-2.4 4.3-3.9 5.9-5.4 3.1-2.9 6.3-5.7 9.4-8.6l18.6-14.7c1.6-1.3 3.1-2.9 4.6-4.4 2-.3 4-.6 5.9-1 1.3 0 2.7 0 4 .1 17.1 1.3 34.3 2.8 51.4 4 8.1.6 16.3.7 24.4 1.2 8.8.5 17.6 1.3 26.4 1.7 2.4.1 4.9-.6 7.4-.9 2.7-.3 5.4-.7 8-1l-3.9 2.6c2.6 1.5 3.9 2.5 5.4 3 1.6.5 3.4 1 5.1.8 3.2-.4 6.3-1.2 9.5-1.8 2.8-.6 5.5-1.1 8.2-1.6z"/><path class="st14" d="M1044.4 1760.7c-2.9-.7-5.7-1.9-8.6-1.9-25.1-.2-50.2-.1-75.2-.1-6.6 0-6.3-.1-4.9-6.4.6-2.7-1.1-5.8-1.7-8.7.7-11.7 1.3-23.5 2.1-35.2.1-1.7 1.2-3.4 1.9-5 6.3 1.7 12.7 3.4 19 5 3.1 2.7 6.1 5.7 9.4 8.1 6 4.4 7.5 3.7 9.1-3.7 1.2-5.2.4-6.3-4.9-6.4-1.5 0-3-.1-4.5-.1 1.4-4.5 5.4-3.4 8.4-3.4 8 0 16 .5 23.9.9 3.2.1 4.9-.9 3.9-4.4h6c1.7.7 3.3 1.6 5.1 1.9 11.4 2 22.9 3.7 34.4 5.8 2.1.4 3.9 2.2 5.8 3.4-3.1 3.2-4.9 6.7-2 11-2.2 9.8-4.4 19.6-6.9 31-3.1-3.4-5-5.6-7-7.7-2.1-2.2-4-4.8-6.6-6.3-6.7-4.1-13.6-7.7-20.6-11.4-2.2-1.2-4.7-1.7-6.8-2.9-4.7-2.7-9.1-5.7-13.7-8.6-1.5-.9-3.2-1.6-4.8-2.4-.3.6-.7 1.1-1 1.7 2.2 1.6 4.2 3.5 6.5 4.7 13.8 7.1 27.6 14 41.4 21 4 2 5.5 5.7 3.2 8.4-3.6 4-7.3 7.8-10.9 11.7z"/><path class="st2" d="M1275.6 1741.6c9.7-3.7 19.3-7.6 29-10.9 13.9-4.7 28.3-8.2 41.1-15.8.9-.5 3.6.4 4.5 1.4 9.6 12.2 19 24.5 28.3 37 3.6 4.8 6.5 10.1 10 15.5-.2.1-1.1.8-2.1.9-7.3.8-14.6 1.7-21.9 2-15.8.8-31.7 1.6-47.5 1.9-19.7.3-39.3.1-59 .2-4.5 0-9 .6-13.5 1 .7-1 1.3-2 2-3 9.6-10.1 19.4-20.2 29.1-30.2z"/><path class="st6" d="M808.1 1696.3c-2 .3-4 .6-5.9 1v-.9c.4-1.3.7-2.6 1.1-4 2.2-1.8 4.6-3.3 6.6-5.3 32-31.9 64-63.8 95.8-95.8 13.4-13.5 26.6-27.2 39.9-40.9 11.2-11.5 22.5-22.9 33.5-34.6 3.6-3.8 7.5-5.6 12.8-5.6 2.7 0 5.8-1.4 7.9-3.1 7.4-5.7 14.2-12.1 21.6-17.8 25.6-19.6 51.4-39 76.9-58.7 5.2-4 10.5-8.7 13.8-14.2 4.8-7.9 7.8-17 11.8-25.4 6.6-13.9 16.1-25.7 25.9-37.3 1 .7 2 1.3 3 2-3.5 4.9-7.2 9.7-10.3 14.9-2 3.4-2.9 7.3-4.1 10.4-.1-.1-.6-1.4-1.9-4.4-4.4 8.6-8.3 15.9-12 23.4-2.9 5.9-5.7 11.8-8 17.9-3 8-9.9 11.9-16.1 16.7-28.8 22.1-57.7 44-86.4 66.1-4.1 3.1-7.6 7-11.3 10.7-3 3.1-6.6 4.8-10.8 3.8-3.5-.8-5.7.5-8 2.8-17.9 18-36 36-53.9 54-38.7 38.9-77.3 77.9-116 116.9-1.8 1.8-3.4 3.7-5.1 5.5-.1.6-.5 1.2-.8 1.9z"/><path class="st5" d="M949.9 1750.6c-.1.1-.3.2-.3.4-2.4 9.3-9.1 10.3-17.4 9.8-11-.7-22-.8-33-.8-9.3 0-18.6.9-27.9.4-10.1-.5-20.3-1.7-30.3-3.4-2.4-.4-5-3.4-6.3-5.8-4.8-8.4-9.1-17.1-13.5-25.7 2 2.7 4.6 5.2 6 8.2 1.9 4.2 4.7 6.2 9.1 6.6 9 .7 18 2 27 2.2 22.9.6 45.8.7 68.7 1.1 3.2.1 6.3.3 9.5.6 5.9.7 7.8-1 8.5-6.8.2-1.7 1.3-3.3 1.9-4.9-.7 6-1.3 12.1-2 18.1z"/><path class="st14" d="M1067.5 1754.6l-1-1 6-31.2c.6-4 1.3-8 1.9-12 3.7 1.4 7.3 3 11.1 4.2 5 1.6 7.9 4.9 8.9 9.8 1.1 5.1 3.1 9.1 8.2 11.6 5 2.5 9.4 6.3 14 9.5 1.7 3.9 3.4 7.8 5.4 12.3-2.1.3-3.9.7-5.8.7-10.1.1-20.3-.2-30.4.2-2.5.1-4.9 1.9-7.4 2.9-3.5-2.3-7.2-4.6-10.9-7z"/><path class="st5" d="M819.2 1727.5c1.9 3.9 4 7.7 5.5 11.7 1.3 3.4-.1 5.9-3.6 7.7-10.5 5.4-21 8.2-33.1 5-12.5-3.3-25.5-4.7-38.2-7-3.5-.6-4-2.5-1.9-5.3 8.6-6.7 17.3-13.5 26-20.2 1.6-1.2 3.4-1.9 5.2-2.9-3.1 2.9-6.3 5.7-9.4 8.6-1.7 1.5-3.3 3-5.9 5.4 5.8 1.2 10.2 2.3 14.7 3 11.3 1.7 22.7 3.2 34.1 4.7 1.5.2 3 .4 4.5.4 3.3.1 4.6-1.3 3.6-4.7-.8-2.1-1.1-4.3-1.5-6.4z"/><path class="st2" d="M1325.9 1689.3c6.1 6 12.2 11.9 18.3 17.9 2.9 2.9 2 5-1.3 6.5-7.6 3.3-15.2 6.8-23.1 9.7-13.3 4.9-26.8 9.5-40.2 14.1 13-13.8 26-27.7 39.1-41.5 2.2-2.4 4.7-4.5 7.2-6.7zm-10 16c-.4.7-.8 1.3-1.2 2l10.2 5.7c.3-.4.5-.8.8-1.2-3.3-2.1-6.6-4.3-9.8-6.5z"/><path class="st18" d="M792.1 1687.3c-5.6-3.2-11.4-6.2-16.9-9.6-23.9-14.8-47.5-30-69.5-47.6-21.6-17.3-44.2-33.5-66.5-50-3-2.2-6.8-3.5-10.2-5.2-6.6-3.4-13.3-6.8-19.9-10.2v-3c1.6-3 3.9-5.7 4.7-8.9 1.5-5.6 2.6-11.4 2.8-17.2.2-5.2 0-11-2.1-15.6-6.1-13.5-13.3-26.5-20.1-39.7-1-1.9-2.8-3.6-3.3-5.6-.8-3.4-2.1-7.4-1-10.3 2.1-5.5 5.5-10.6 8.7-15.7 3.2-5 6.8-9.8 10.2-14.7 1 .3 2 .7 3 1-5.8 8.7-11.7 17.4-17.5 26.2-3.7 5.6-3.6 10.7 1.3 15.8 1.7 1.7 2.3 4.4 3.4 6.6 5.1 10.1 10 20.4 15.4 30.4 3 5.4 5.2 10.8 4.4 17.1-1.1 8.4-2.2 16.9-3.5 25.3-1.2 7.4-.5 8.9 6.1 12.4 8.8 4.7 18.1 8.7 26.2 14.4 15.2 10.6 29.8 22.1 44.6 33.3 13.7 10.4 26.9 21.6 41.1 31.3 19.8 13.4 40.3 25.8 60.5 38.6-.6.2-1.2.6-1.9.9z"/><path class="st19" d="M1325.9 1689.3c-2.4 2.2-4.9 4.3-7.2 6.7-13.1 13.8-26 27.7-39.1 41.5l-4 4c-9.7 10-19.4 20.1-29.1 30.1h-6c6.8-7.6 13.5-15.4 20.5-22.9 9.5-10.1 19.3-19.9 28.8-29.9 4.5-4.7 8.7-9.7 13-14.5l18.1-18.1c1.7.3 3.4.7 5.1 1v1c-.1.4-.1.8-.1 1.1z"/><path class="st17" d="M977 1708.4c-6.3-1.7-12.7-3.4-19-5 4.4-4.5 9.1-7.8 16-7 2.9.4 6.1-1.3 9.1-2.1 5.6.5 11.2.9 16.7 1.7 7.5 1 15 2.2 22.5 3.4 1 3.5-.7 4.6-3.9 4.4-8-.3-16-.9-23.9-.9-3 0-7-1.1-8.4 3.4-3 .7-6.1 1.4-9.1 2.1z"/><path class="st5" d="M214.5 1631.2c3.7-4.3 6.5-2.5 9.4 0 2 1.7 4.5 3 6.5 4.7 1.7 1.5 3.7 3.2 4.4 5.1 1.4 4.1 4.2 6 7.9 7.7 6.6 3.1 13.1 6.7 19.4 10.4 1 .6 1.2 2.5 1.8 3.9-1.6.2-3.7 1.2-4.7.5-14.8-9.5-29.2-19.3-44.1-28.6-4.5-2.8-10-4.3-15-6.1-3.2-1.2-8.6-1.2-7.6-5.4 1.2-4.5 5.8-1.6 9-.9 5.2 1 10 2.7 13 8.7z"/><path class="st17" d="M1240.4 1771.7h6c-.7 1-1.3 2-2 3-9.9 9.9-17.3 21.5-23.9 33.7-2.8 5.2-5.9 10.3-9 15.5-.5.8-1.4 1.3-2.1 1.9-.4-.2-.9-.4-1.3-.6 1.8-4.6 3.3-9.4 5.4-13.8 3.4-7 7.1-13.8 10.7-20.6 3.8-4.9 7.6-9.8 11.4-14.6 1.5-1.6 3.2-3 4.8-4.5z"/><path class="st3" d="M808.1 1696.3c.3-.7.7-1.3 1-2 21.3 1.6 42.5 3.3 63.8 4.8 10 .7 20 .9 29.9 1.3 5 .2 9.9 0 14.9 0 1.3.7 2.7 1.3 4 2-2.5.3-4.9 1.1-7.4.9-8.8-.4-17.6-1.2-26.4-1.7-8.1-.5-16.3-.6-24.4-1.2-17.1-1.2-34.3-2.7-51.4-4-1.3-.1-2.7-.1-4-.1z"/><path class="st17" d="M953.9 1704.4l-8.1 1.5c-3.2.6-6.3 1.4-9.5 1.8-1.7.2-3.5-.3-5.1-.8-1.5-.5-2.8-1.5-5.4-3l3.9-2.6c4.4-1.7 9-3.3 13.3-5.3 3.8-1.7 15.2-2.7 19.1-.9-2.7 3.2-5.5 6.2-8.2 9.3z"/><path class="st8" d="M1842.5 1669.2c-9.2.8-17.1 4.4-24 10.9-.7-5.1 2.3-7.9 6.4-9.4 3.6-1.3 7.4-1.8 11.2-2.6 3.4-.7 6.7-1.5 7.6-5.5 1-4.2 3.2-8.2-1-12.5-6.1-6.2-3.7-19.6 3.8-24.3v.1l1 1c-6.2 8.2-6.7 12.2-2 19.1.5 1.2.7 2.6 1.4 3.6 5.6 7.8 4.1 14.7-4.4 19.6z"/><path class="st18" d="M414.1 1521.4c.3-10.9 3.3-20.3 14-25.5 3.6-1.7 6.8-4.2 10.4-6 7.1-3.5 12.6-8.5 15.8-15.8h2c-1.5 5.8-4.1 10.8-9.7 13.9-5.7 3.2-10.9 7.2-16.7 10-10 4.8-12.2 13.8-13.8 23.4h-2z"/><path class="st3" d="M1022.3 1699.4c-7.5-1.1-15-2.4-22.5-3.4-5.5-.7-11.1-1.1-16.7-1.7-.7-.3-1.3-.7-2-1 6.8.3 13.7.3 20.5.8 8.6.7 17.1 1.9 25.6 2.9 1.4.2 2.8.8 4.1 1.3-1 .3-2 .7-3 1-2 0-4 0-6 .1z"/><path class="st20" d="M185 1626c-3.8-2.3-7.6-4.7-11.4-7 .3-.7.5-1.3.8-2 4.2.7 8.5 1.3 12.7 2 3.2 3.4 1.6 5.5-2.1 7z"/><path class="st14" d="M1052.4 1701.4c7.1.7 14.2 1.3 21.2 2.4.8.1 1.3 3 1.9 4.6-5.3-1.6-10.7-3.3-16-4.9-2.3-.7-4.7-1.4-7.1-2.1z"/><path class="st18" d="M245.5 1685.2c4.1-4.4 8.2-8.7 12.3-13.1.4.4.9.8 1.3 1.2-4 4.5-8 8.9-12 13.4-.5-.6-1.1-1-1.6-1.5z"/><path class="st5" d="M792.1 1687.3c.7-.3 1.3-.7 2-1 3 2 6.1 4.1 9.1 6.1-.4 1.3-.7 2.6-1.1 4h-2c-1.4-1.7-2.8-3.5-4.3-5.2-1.1-1.4-2.5-2.6-3.7-3.9z"/><path class="st21" d="M872.1 1852.4c-2.5-3-4.4-5.2-6.6-7.9 7.1.7 8 1.6 6.6 7.9z"/><path class="st22" d="M1074.5 1710.4c-.6 4-1.3 8-1.9 12-.3-.3-.7-.6-1-1-2.8-4.3-1-7.8 2-11h.9z"/><path class="st14" d="M1037.4 1698.3c4.9-.1 10.2-1.8 14.1 3-4.8-.9-9.5-2-14.1-3z"/><path class="st23" d="M659.4 1264.1c-1.6 9.5-8.5 16-13.3 23.8-5.4 8.8-11.4 17.3-17.1 25.9-1 1.6-1.8 3.3-3.4 6.3 2.2-1 2.9-1.3 3.6-1.6-.7 5-1.3 10.1-2 15.1l-1-1c-.6-3.8-1.7-7.6-1.8-11.4 0-2.8 1-5.8 2.3-8.3 1.9-3.8 4.4-7.3 7.3-11.8-5.5-.5-10.1-.8-14.6-1.3-7.3-.7-14.6-1.6-21.9-2.2-4.2-.3-5.5-2.3-4.6-6.3.6-2.7 1.2-5.8-3-8 0 1.8-.2 2.6 0 3.3 2.1 7.1-1.3 11.3-8.6 10.6-14.4-1.5-28.7-3.2-43.1-4.2-3.1-.2-6.3 2.2-9.5 3.4 3.7-3.2 7.2-6.7 11.1-9.5 4.4-3.2 8-6.6 8.4-11.5-6.6 5.2-13.4 10.5-20.1 15.9-1 .8-1 2.7-1.5 4-2.9-1.8-5.7-4.2-8.8-5.1-3.4-1-7.1-.6-10.7-.9-16.6-1.8-33.2-3.3-49.7-5.6-14.4-1.9-28.6-4.8-42.9-7-4.1-.7-8.3-.8-12.5-1.1-.3.6-.6 1.1-.8 1.7 5.1 5.4 10.4 10.6 15.3 16.2 2 2.3 3.1 5.3 4.6 8-8.6-9.5-16.9-19.4-26-28.4-8.5-8.5-7.2-16 .1-24.1 1.5-1.7 2-4.5 2.6-6.8 2-6.8 3.8-13.8 5.9-20.6 1.4-4.5 4.9-4.9 8.9-4.3 14 2.1 28 4.4 42.1 6.2 29.3 3.7 58.7 7.2 88 10.8 5.5.7 11 1 16.4 1.8 4.6.7 5.3 2.3 3.4 6.6-1.9 4.2-3.9 8.4-5.8 12.7-1.9 3.5-3.8 7-5.8 10.5.5.3 1 .6 1.4.8 2.4-3.8 4.9-7.6 7.3-11.3 2.6-3.9 5.4-7.6 7.8-11.6 2.2-3.7 4.9-5.8 9.3-5.5 13.1 1 26.3 1.5 39.4 2.9 7.8.8 13.8-3 20.2-6.1.5-.3 1.1-1.1 1.1-1.6-.2-5.9 3.9-11.8.4-17.8-.5-.8-.2-2-.2-3.1l1.8-.3c1.1 6.6 2.5 13.1 3.3 19.7.4 3.4 1.8 5 4.9 5 3.2 0 4.2-1.8 3.9-5-.2-1.9.4-3.9.7-5.8.5 2 .7 4.3 1.7 6.1 2 3.7.6 5.3-3 5.8-2.1.3-4.7-.3-6.4.7-2.1 1.3-3.6 3.7-4.7 5.9-.3.6 1.8 3.1 3.2 3.4 1.8.4 5.4-.1 5.6-.9 1.5-6 7.8-6.8 10.8-11-1.5 4.7.3 6.8 5.1 7.1 1.3.1 2.6 1 3.9 1.5-.6 1.3-1.1 2.7-1.9 3.8-1.6 2.3-3.4 4.4-5 6.6-.8 2.9-1.4 5.9-2.1 8.9zm-63.2 11.8c.4.5.9.9 1.3 1.4 3.7-3.4 7.4-6.7 11.1-10.1l-.8-.8c-3.8 3.1-7.7 6.3-11.6 9.5z"/><path class="st4" d="M210.1 1281.2c2.6-7.8 5.2-15.5 7.7-23.3 1-3.1 2.9-3.2 5.5-2 11.7 5.3 23.4 10.9 35.3 15.7 4.3 1.7 9.5 2.8 14 2 13.2-2.4 26.3-1.3 39.4.1 13.3 1.4 26.4.6 38.9-4.5.4 3.3 1.9 7.1.8 9.7-1.2 2.7-1.6 4.7-.9 7.3-2.9.8-5.9 2.4-8.7 2.1-8.6-.8-17.1-2.5-25.7-3.4-20.9-2.1-41.9-3.9-62.8-5.7-10.5-.9-21-1.3-31.5-2.2-4.8-.5-8.9.1-12 4.2zM351.8 1269.1c7.8-4.1 15.7-8 23.4-12.3 3.4-1.9 5.5-1 7.6 1.9 6.3 8.8 12.5 17.6 19.2 26.1 4 5.1 8.7 9.6 13.1 14.4-8.8-1.6-17.6-3.3-26.4-4.7-9.6-1.6-19.3-2.9-29-4.3-.7-3.8-2.5-7.7-1.8-11.2 1.3-6.6.6-8.7-6.1-9.9z"/><path class="st24" d="M1120.8 1311.3c2.4-3 4.7-6 7.1-9 1.7.7 3.3 1.3 5 2-3.3 5-6.5 10.1-10.1 15-1.6 2.2-3.8 5.1-6.1 5.6-6.6 1.3-13.5 2.4-20.2 2.1-9-.5-17.9-2-26.7-3.7-8.2-1.6-15 .5-21.7 5.1-14.8 10.2-29.9 20.2-44.8 30.3-.7-1-1.4-2-2-3 7.4-5.4 14.7-10.7 22.1-16.1l1-1c7.1-4.6 14.5-8.9 21.3-13.9 7.4-5.5 15.2-6.9 24.1-5.7 12.1 1.5 24.2 2.5 36.3 3.5 6.5.5 11.9-1.6 14.8-8-.1-1.1-.1-2.2-.1-3.2z"/><path class="st25" d="M351.8 1269.1c6.7 1.2 7.4 3.3 6.1 9.9-.7 3.5 1.2 7.5 1.8 11.2 0 7.2 7.4 6.1 11.7 9.9-2.2.9-3.8 1.4-5.2 2.2-3.6 2-7.1 4.4-10.8 6.1-1.8.8-4.2.3-6.4.4-.1-1.9-.6-3.9-.1-5.7.6-2.1 2.7-3.8 2.8-5.8.1-2.3-1.3-4.6-2.1-7.1h3.1c-.9-1.7-1.5-2.9-2.1-4.1-.7-2.6-.3-4.7.9-7.3 1.1-2.6-.4-6.4-.8-9.7.5.1.8.1 1.1 0z"/><path class="st26" d="M440.3 1463.1v1.1c-1.9.3-4.1 1.4-5.6.8-7-2.7-13.9-5.8-20.7-8.9-10.6-4.9-21-10-30.6-14.6 9.1-2.5 12.3-1.5 21.8 3.7 6.6 3.6 14.1 5.5 21.2 8.1.5.2 1.2.1 1.4.4 2.5 4.5 6.4 6 11.3 5.9.4-.1.8 2.2 1.2 3.5zM359.1 1411.6c2.8 7.9 5.6 15.5 8.2 23.2.4 1.1-.2 2.6-.7 3.8-1.3 2.9-3.3 3.7-5.7 1-1.5-1.6-3.3-3.1-4.2-5-3.3-7.1-8.3-9.8-15.4-6.6-.5-.5-.7-.6-.8-.7.7-.6 1.4-1.2 2.4-2.1-1.4-.2-2.7-.4-4.5-.8.9-.3 1.3-.4 1.7-.5 4.6-.9 9.3-1.5 13.8-2.7 1.1-.3 2.1-1.9 2.7-3.2 1-1.9 1.6-4.1 2.5-6.4zM187.2 1437.3c3.3-4.1 9.6-5.6 8.2-12.1-1.1-5-2.9-9.8-4.4-14.6.4-.3.8-.6 1.2-.8 1.2 1.7 2.7 3.2 3.6 5.1 3 5.9 5.2 12.4 12.7 14.6.8.2 1.5 2.4 1.4 3.6-.1.8-2.1 2.1-2.7 1.9-4.2-1.7-7.7-.2-11.6 1.2-2.4.8-5.5.8-8.4 1.1z"/><path class="st27" d="M526.7 1295.3c.5-1.4.6-3.2 1.5-4 6.6-5.5 13.5-10.7 20.1-15.9-.5 4.9-4 8.3-8.4 11.5-3.9 2.8-7.4 6.3-11.1 9.5v3c-.7 4.4-1.3 8.7-2 13.1-.7 8.7-1.3 17.4-2 26.1h-1c0-6.3-.7-12.8.2-19 1.1-8.1-2.4-16.8 2.7-24.3z"/><path class="st23" d="M520.7 1446.1c-.7-1.4-2-2.9-1.9-4.3.4-15.4 1-30.7 1.6-46.1.3-7.8.8-15.7 1.3-23.5.1-1.3.2-2.6 1.4-4.1.2 1.3.6 2.6.5 3.8-.9 20.7-1.9 41.4-2.8 62.1-.1 4-.1 8-.1 12.1z"/><path class="st28" d="M296.9 1420.5c9.5-.7 18.1-1.5 26.7-1.8 1.5 0 3.1 2.3 4.7 3.5-1.4 1.4-2.8 3.8-4.3 4-4.2.3-8.6-.3-12.8-.6-.3 0-.8-.2-.9-.4-2.5-6.1-8.2-3.7-13.4-4.7z"/><path class="st29" d="M335.3 1317.3c8.4 5.5 8.4 5.5 14.6-.5-.2 4.2-.3 7.4-.6 10.6-.2 2.8-.8 5.6-.9 8.4-.2 4.1-2.5 5.4-7.6 3.1 1.4-2.2 2.8-4.3 4-6.6 1.5-2.8 3.1-5.4-1.6-7.6-3.1-1.4-5.3-4.9-7.9-7.4z"/><path class="st30" d="M364.6 1373.6c.1.9.4 1.8.3 2.7-.6 3.9-1.4 7.8-2.1 11.6-.2 1.3-.3 2.9-1.1 3.8-1.1 1.2-2.8 1.8-4.2 2.7-.9-1.5-2.7-3.1-2.4-4.4 1.3-6.3 4.7-11.7 8.3-16.8.4.2.8.3 1.2.4z"/><path class="st31" d="M266.8 1299c2.7-2.1 5-3.9 7.3-5.7-.2-.3-.4-.7-.6-1 3.4 0 6.9-.1 10.3.1 1.1.1 2 1.2 3.1 1.9-.9.9-1.8 2.6-2.8 2.7-5.6.9-11.2 1.4-17.3 2z"/><path class="st9" d="M293.7 1294.7c1.9-2 3.4-3.6 5.7-6.1 2.1 2.5 5 4.8 6 7.7 1.2 3.2-3.8 5.1-6.7 2.6-1.6-1.3-3.3-2.7-5-4.2z"/><path class="st32" d="M626.2 1332.5l1 1c1.4 10.2 2.8 20.3 4.2 30.5-.8.1-1.6.2-2.5.2-.9-10.6-1.8-21.2-2.7-31.7z"/><path class="st16" d="M650.4 1287.2c.7-1.3 1.3-2.7 2-4 3.1 2.5 6.2 5 9.9 8.1-6.2 2.1-8.7-1.9-11.9-4.1z"/><path class="st33" d="M710.3 1395.6c1.6 2.2 3.5 3.7 3.5 5.3.1 1.2-2.1 2.5-3.3 3.8-1.3-1.3-3.3-2.6-3.6-4.1-.1-1.2 1.8-2.8 3.4-5z"/><path class="st23" d="M526.7 1312.4c.7-4.4 1.3-8.7 2-13.1 1 4.6 3 9.4-2 13.1z"/><path class="st34" d="M103.1 1339.1c-1.8 2.6-3.7 5.3-5.5 7.9-.5-.4-1.1-.7-1.6-1.1 1.8-2.7 3.6-5.4 5.4-8.2.6.5 1.1 1 1.7 1.4z"/><path class="st6" d="M225.2 1303.2c3.4-.9 6.9-1.7 10.3-2.6.1.5.3 1 .4 1.5-3.4.9-6.8 1.8-10.2 2.8-.2-.6-.4-1.1-.5-1.7z"/><path class="st4" d="M346.8 1268.2c-10.1 3.2-20.5 4.8-31.1 3.6-14.8-1.7-29.5-2.5-44.4-.2-4.3.7-9.3-.8-13.5-2.5-11.3-4.7-22.2-10.2-33.4-15.1-3.7-1.6-4.6-3.6-3.2-7.4 3.3-8.9 5.8-18.2 9.5-27 2.4-5.7 6-11 9.4-16.3.7-1.1 3.3-1.6 5-1.5 8.2.3 16.4.9 24.5 1.2 1.7.1 4.2-.3 4.8-1.3.6-1.1-.4-3.3-1-4.9-.4-1.1-1.3-1.9-2-2.9.7-.4 1.3-.8 2-1.3 1.4 1.4 2.9 2.8 4.3 4.2 10.2 10.3 20.7 20.3 30.4 31 6.6 7.2 11.5 16.2 22.9 16.9 4.3.3 8.6 1.8 12.9 1.8 5.7 0 11.5 3.3 17-.6-3.1 7.1-15.7 10.8-22.2 6.8-3.5-2.2-7.2-3.9-10.8-5.9-.3.5-.7.9-1 1.4 3.7 3.1 7.4 6.1 11.2 9.3-.9 1-1.6 1.8-3 3.3 4.2 2.7 7.9 5.1 11.7 7.4z"/><path class="st2" d="M526.7 1295.3c-5.1 7.6-1.6 16.2-2.8 24.3-.9 6.2-.2 12.6-.2 19-.3 5.4-2.6 6.9-8.4 6.3-12.7-1.4-25.6-1.5-38.4-2.3-1.8-.1-3.7-.7-5.2-1.6-18.4-10.4-33.7-24.8-49.7-38.5-.4-.3-.6-.8-.9-1.2-1.5-2.7-2.6-5.7-4.6-8-4.9-5.6-10.2-10.8-15.3-16.2.3-.6.6-1.1.8-1.7 4.2.4 8.4.5 12.5 1.1 14.3 2.3 28.6 5.1 42.9 7 16.5 2.2 33.1 3.8 49.7 5.6 3.6.4 7.3-.1 10.7.9 3.3 1.1 6 3.5 8.9 5.3z"/><path class="st23" d="M360.9 1246c-5.5 3.9-11.4.5-17 .6-4.3 0-8.6-1.5-12.9-1.8-11.4-.7-16.3-9.7-22.9-16.9-9.8-10.7-20.3-20.7-30.4-31-1.4-1.4-2.8-2.8-4.3-4.2 2 1 4 2 6 3.1 3.2 1.6 6.2 4.3 9.6 4.7 12.1 1.5 24.3 2.1 36.4 3.4 7.5.8 14.9 2 22.3 3.2 12.7 2 25.4 4.2 38.1 6.1 3.3.5 6.7.5 10 .7 3.5.2 4.6 2.1 3.9 5.4-1.2 6-3.1 12-3.1 18 0 8.7-6.3 13.6-9.6 20-.9-.1-1.4 0-1.6-.2-5.8-5.4-5.7-5.3-13.3-1.3-6 3.2-12.2 6.2-18.3 9.3 1.8-1.4 3.6-2.8 5.5-4 4.8-2.9 9.8-5.7 14.6-8.5-4-1.8-7.4-2.9-7.1-7.6-.5-4.1 1.4-6.6 5.1-8.1 1.4-.6 3.1-1.1 3.8-2.2.7-.9.2-2.7.3-4-1.4.1-3.5-.4-4.1.3-3.8 4.9-7.4 10-11 15z"/><path class="st2" d="M1120.8 1314.4c-2.9 6.4-8.2 8.5-14.8 8-12.1-1-24.2-2-36.3-3.5-8.9-1.1-16.7.3-24.1 5.7-6.8 5.1-14.2 9.3-21.3 13.9-9.2-13.9-18.4-27.8-27.5-41.8-3.1-4.7-1.4-7.4 4.6-7.4 17 .2 34 .7 51.1 1 6.7.1 13.4-.5 20 0 7.7.6 15.5 1.6 23.1 3.4 6.8 1.6 9.9 8 14.2 12.8 2.9 3.3 7.3 5.3 11 7.9z"/><path class="st4" d="M132.7 1170.6c.3-.9.7-1.8 1.1-3h-12.2c8.9-5.3 19-2.3 28.5-3.8 24.9-3.9 50-6.7 75-9.8 14.1-1.7 28.2-3.1 42.3-4.6 7.5-.8 14.9-1.4 22.4-2 1.6-.1 3.1.1 4.7.2 0 .4.1.9.1 1.3-6.3 1.1-12.6 2.5-18.9 3.4-27.5 3.7-55 7.3-82.5 10.8-20.1 2.7-40.3 5-60.5 7.5z"/><path class="st16" d="M360.9 1246c3.6-5 7.2-10.2 11.1-15 .6-.7 2.7-.2 4.1-.3 0 1.4.4 3.1-.3 4-.8 1.1-2.4 1.6-3.8 2.2-3.7 1.5-5.5 4-5.1 8.1-3.8 8.9-11.7 11.4-20.7 12.5 1.7 3.2 3.2 5.9 4.7 8.7-1.4.7-2.7 1.4-4.1 2.1-3.8-2.3-7.5-4.7-11.6-7.2 1.4-1.6 2.1-2.4 3-3.3-3.8-3.2-7.5-6.3-11.2-9.3.3-.5.7-.9 1-1.4 3.6 1.9 7.3 3.7 10.8 5.9 6.4 3.8 19 .1 22.1-7z"/><path class="st23" d="M487.2 1207.2c2.2-1.4 6-2.6 6.3-4.3.3-2.1-2.3-4.7-3.7-7 5 1 9.7 2 14.5 3.1 1 .2 2.1.5 2.7 1.1 7.3 6.9 16.2 6.8 25.3 6.2 2.5-.2 5.1.8 7.6 1.3 2.1.4 4.2 1.1 6.3 1.2 6.8.2 13.6.1 20.6 1-.9.3-1.8 1.1-2.7 1-15.6-1.2-31.4-1.8-46.9-4.1-10.1-1.5-19.7-3.3-29.3 1.8-.2-.5-.5-.9-.7-1.3z"/><path class="st4" d="M350.9 1266.1c-1.5-2.8-3-5.5-4.7-8.7 9-1.1 16.9-3.6 20.7-12.5-.3 4.7 3.1 5.7 7.1 7.6-4.9 2.8-9.8 5.6-14.6 8.5-1.9 1.2-3.7 2.7-5.5 4-1.1.4-2 .8-3 1.1z"/><path class="st2" d="M659.4 1236c-3 4.2-9.3 5.1-10.8 11-.2.8-3.8 1.3-5.6.9-1.3-.3-3.4-2.9-3.2-3.4 1.1-2.2 2.7-4.6 4.7-5.9 1.6-1 4.2-.4 6.4-.7 3.6-.5 5.1-2.1 3-5.8-1-1.8-1.1-4.1-1.7-6.1 3.1-1.5 4.3.7 5.1 2.9 1 2.2 1.5 4.7 2.1 7.1z"/><path class="st27" d="M560.5 1250.3c4.8-9.2 9.6-18.5 14.5-27.8.8 4.2-6.9 19.7-14.5 27.8zM659.4 1264.1c.7-3 1.3-6 2-9 2.2-2 4.5-3.9 7.4-6.5-2.6 5.9-4.8 10.9-7.1 15.9 0 .1-1.5-.3-2.3-.4zM1091.4 1241.8c7.7-2.2 15.4-4.4 23-6.6.2.7.4 1.5.6 2.2-7.8 1.9-15.5 3.8-23.3 5.7-.1-.4-.2-.9-.3-1.3zM559.9 1255.1c-2.4 3.8-4.9 7.6-7.3 11.3-.5-.3-1-.6-1.4-.8 1.9-3.5 3.8-7 5.8-10.5h2.9z"/><path class="st2" d="M1605.3 1668.2c-5.2-7.7-9.8-15.9-15.8-23-6.4-7.7-15.7-11-25.4-13.2-9.3-2-18.7-3.8-27.9-6.4-11-3.2-19.4-10.2-25.2-20.3-9.3-16.1-22.5-29-34.8-42.6-3.7-4.1-7.6-8.1-7.9-14.6-.2-6.4 1.6-11 6.3-15.4 8.7-8.1 17.3-16.4 25.2-25.2 8.9-9.9 20.3-16.3 30.8-23.9 1.2-.9 3.4-.7 5.1-.7 1.7 0 3.4.5 6.1.9-1.4-2.3-2.1-3.4-3-5 7.1-4.3 14.1-8.5 21.1-12.8 1.1 4 4.3 5.8 7.9 5.9 10.3.2 20.7.2 31-.1 7.7-.2 15.4-.9 23-1.8 2.3-.3 4.9-1.7 6.5-3.4 3-3.1 5.1-7.1 8-10.2 1.7-1.8 4.3-2.9 6.6-4.1 2.9-1.5 6.3-2.4 8.9-4.3 2.6-1.9 4.6-1.8 6.5.5 3.1 3.9 6.5 3.7 10.6 1.5 5.7-3.1 11.6-5.9 17.5-8.7 1.3-.6 3-1.4 4.3-1.1 6.6 1.5 11.7-1.8 16.8-5 1.1-.7 2.3-1.4 3.5-1.9 3.3-1.2 5.4-.8 6.4 3.5 3.1 13.2 6.9 26.2 10.1 39.4 3.9 15.7 13.8 27.2 26.1 37 4.1 3.2 8.5 6.1 6.7 12.7-.3 1.1 1.4 3.6 2.7 4.2 7.6 3.4 15.3 6.4 23.1 9.5.7.3 1.5.1 2.2.2l.6-1.5c-4.7-2.5-9.4-5-14.2-7.4-1.5-.7-3.1-1.3-4.7-1.6-4.5-.9-8.8-1.6-6.4-8.2.4-1.2-1.4-3.7-2.7-5-5-4.9-10-9.8-15.4-14.3-10.8-9.3-14.4-22.3-18.1-35.1-2.7-9.5-5-19.1-7.1-28.7-.7-3.2-.6-6.8.2-9.9 1.8-6.9 5.1-13.5 6.4-20.5.9-4.9-.6-10.2-1-15.3-.2-1.8-1.3-3.9-.7-5.3.6-1.5 2.7-3.4 4.2-3.5 9-.1 18.1.1 27.1.4 4.6.2 8.7-.2 10.9-5.1.5-1 1.9-1.6 3.8-3.1.1 7.4 5.1 7.1 9.2 6.9 7.2-.3 14.4-1.4 21.7-2.1.2-.7.3-1.5.5-2.2-2.1-1.3-4.3-2.5-6.3-4-2.1-1.7-4.1-3.7-6.1-5.5 3.4 1.8 6.6 4 10.2 5.3 2.4.9 6 1.6 7.9.4 4-2.4 7.9-2 12-1.7 5.4.5 6.8 2.4 5 7.6-1.9 5.5-4.4 10.8-5.4 16.7-1.6 8.8-4.3 17.4-6.5 26-5.1 20.8-10.4 41.5-15.4 62.3-4.7 19.6-8.8 39.3-7.9 59.7.4 9.1-.5 18.3-.9 27.4-.8 16.5-.5 33 2 49.4 1.1 7.4 2 14.9 3 22.3-2.2.6-4.6 1-6.7 1.9-16.2 7-32.4 14.1-48.6 21.2.2-1.1.6-2.3.5-3.4-.1-1.2-.5-2.4-.8-3.6-1.3.5-2.7.8-3.7 1.6-3.2 2.4-3.7 5.3-1 8.4-14.4 4.6-28.9 9.2-43.3 13.9.1.6.1 1.1.2 1.7 6.5.6 13.1 1.3 19.6 1.9-26.6 2.2-53.7.2-79.7 10.1 1 1.8 1.8 3.2 2.6 4.6-7.7-4.6-14.2-10.5-18.7-18.3-3-5.5-6.2-10.7-9.3-16zm158.8-98.5l-12.3-3.9c1.7 2.1 3.7 3.2 5.5 4.6 2.6 2 4.8 2 6.8-.7 4 .9 9.1-2.4 8.3-5.7-1.1-4-3-7.7-4.6-11.6-.5.1-1 .1-1.5.2.5 2.4.5 5 1.5 7.2 2.6 5.9 2.3 6.9-3.7 9.9zm-85.5-78.4c1.3 1.4 2.3 3.2 3.9 4.3 4.5 3 8.5 1.9 8.6-2.3 0-2.1-1.7-4.2-2.4-5.9-3.2.4-6.1.7-9 1-10.1 1.4-19.2 7.5-19.9 12.9 6.1-3.3 12.5-6.7 18.8-10zm44.9 137.1c-.6-.4-1.3-.8-1.9-1.2-2.4 3.3-4.9 6.5-7 10-.5.9.5 3.7 1.4 4.1 1.4.6 3.3-.2 5.1-.4-.2-1.3-.5-2.7-.6-4 0-1.6-.1-3.4.4-4.9.5-1.4 1.7-2.4 2.6-3.6zM1612.1 1518c4.8-3.8 11.5 3.5 16-2.9-6.9-4.1-12.3-3.2-16 2.9zm-93.1 28.8c.2-.6.5-1.2.7-1.8-1.7-.8-3.5-1.7-5.2-2.5-.5 2.9-1.2 5.8-1.5 8.7 0 .2 1.8.6 3.6 1.2-.6-2-1-3.1-1.3-4.4 1.3-.4 2.5-.8 3.7-1.2zm251.8-44.7c1.4-1.8 2.9-2.9 2.9-3.9 0-1.1-1.5-2.1-2.4-3.2-1 1.1-2.3 2.1-2.7 3.4-.3.7 1.1 1.9 2.2 3.7zm-50.1 12.4c-1.8-1.3-2.8-2.6-3.9-2.7-.8-.1-2.5 1.8-2.3 2.2.4 1.1 1.5 2.4 2.6 2.8.6.3 1.8-1.1 3.6-2.3zm17.8 57.3c3-1.6 5.9-3.2 8.3-4.5-5.5-1.4-7.9-.2-8.3 4.5z"/><path class="st2" d="M1562 1465.1c6.7-4.4 13.4-8.7 20.1-13.1 12.1-7.5 24.1-15.1 36.4-22.3 12.3-7.1 22-16.3 26.7-30.1.5-1.5 1.5-2.9 2.9-5.4.3 6.4-.8 11.6 3.3 15.6.5-3-.3-6.2.7-8.7 1.7-4.1.6-6.9-2.5-9.4 7.7-3.6 15.1-8 23.1-10.6 5.6-1.9 12.1-2.3 18.1-1.9 7.5.5 14.8 2.4 22.2 3.8 8.2 1.5 11.4 5.1 10.7 14.7-.7 9.2-2.8 18.4-5 27.4-.5 2.1-3.5 3.9-5.7 5.3-2.1 1.3-4.7 1.7-6.8 3.1-4.7 3.1-9.7 4.8-15.5 4.8-2.9 0-5.9 1.9-8.8 3.2-5.2 2.3-10.1 5.1-15.4 7.2-1.5.6-4.3-.2-5.5-1.3-3.5-3.5-6.6-4.2-10.4-.7-1.1 1-2.5 2.1-3.8 2.2-9.9.8-14.3 8.5-19 15.5-2 2.9-4.1 3.8-7.4 4-14 .8-28 2.1-42 2.7-6.1 0-12.4-.2-16.4-6zm52-13.6c-2.6-.4-4.7-.8-7.6-1.2 2.8 4.7 4.3 5 7.6 1.2zm15.2-14c-5.5 1.6-6.2 2.8-4.2 7.1 1.3-2.3 2.6-4.5 4.2-7.1z"/><path class="st27" d="M1825.2 1337.4c-.3-2.3-.9-4.6-.8-6.9.5-8.7-1.1-16.7-5.6-24.5-2.4-4.1-2.1-9.6-3.4-14.4-2.5-9.7-8.9-16.3-18-20-7.1-2.9-8.6-8-2.4-12.5 7.4-5.3 15.7-9.4 23.6-13.9 2.3-1.3 4.9-2.1 7.4-3.2 10.7-5 21.2-3.8 29.6 4.6 2.1 2.1 2.5 6.4 2.4 9.6 0 1.3-3.4 3.2-5.5 3.6-13.4 2.7-27 5-40.4 7.6-1.7.3-3.2 1.4-4.9 2.1.8 1.5 1.2 3.5 2.4 4.5 7.9 6.9 11.7 15.1 10 25.8-.4 2.2.7 5.1 2 7 4.1 6 5.1 12.6 4.7 19.6-.2 3.6 0 7.2 0 10.9-.3-.1-.7 0-1.1.1z"/><path class="st35" d="M1813.4 1422.9c2.2-8.7 5-17.2 6.5-26 1.1-5.9 3.5-11.2 5.4-16.7 1.8-5.1.4-7.1-5-7.6-4.1-.3-8-.7-12 1.7-1.9 1.1-5.4.5-7.9-.4-3.6-1.3-6.8-3.5-10.2-5.3-1.4-1.7-2.8-3.4-4.4-5.4.9-.1 2.7-.7 4.4-.6 4.8.1 6.9-2.1 8.4-6.7 4.3-14.3-.1-26.6-7.1-38.7-2-3.5-3.3-7.2-2.4-12.2 1.5 1 2.3 1.2 2.6 1.7 8.3 15.6 16.6 31.2 11.4 49.9-1.4 4.9 0 7.9 5.3 8.4 7 .7 14.1 2.4 21 1.5 6.7-.8 11.1-6.4 14-12.6 1.2-2.6 2.8-5 4.2-7.4 1.3.7 2.7 1.3 4 2-3.2 5.8-6.5 11.6-9.7 17.4-2.4 4.3.6 6.7 3.6 8.5 7.2 4.5 14.8 8.4 21.8 13.2 10.3 7 21.4 10.5 33.8 10.3.9 0 1.9.6 2.8.9-3.4 1.3-6.7 2.7-10.1 4-7.7.7-14.3-1.9-20.7-6-9.7-6.2-19.8-11.8-29.8-17.6-5.5-3.2-12.1-.5-14.2 6.3-3.7 11.9-7.1 24-10.6 36-.3 1.1-.8 2.2-1.1 3.3-1.4-.5-2.7-1.2-4-1.9z"/><path class="st36" d="M1649.5 1391.8c3.1 2.5 4.1 5.2 2.5 9.4-1 2.5-.2 5.7-.7 8.7-4.1-4-2.9-9.2-3.3-15.6-1.4 2.5-2.3 3.9-2.9 5.4-4.7 13.7-14.4 22.9-26.7 30.1-12.3 7.2-24.3 14.8-36.4 22.3-1.3-.7-2.7-1.3-4-2 12.7-8 25.2-16.5 38.2-23.9 11.4-6.5 19.4-15.4 24.9-27.1 4.3-9.2 9.8-17.8 14.9-26.6.7-1.2 2.3-1.9 3.4-2.8 1 .7 2 1.3 3 2-3.4 5-6.7 10-10.1 15.1-.8 1.6-1.8 3.3-2.8 5z"/><path class="st2" d="M1778.1 1367.8c-3.4.3-6.8.8-10.1.8-14.9.1-29.8.1-44.6 0-2.3 0-4.6-1.2-6.8-2.9 20.7-4.4 41.1.5 61.5.9v1.2zM1652.5 1386.7c3.4-5 6.7-10 10.1-15.1 3-4 6-8 9-12.1.2 3.3 2.4 3.9 5.2 4 2 .1 4 .5 6.1.8l.3 1.5c-1.4.8-2.8 1.9-4.3 2.3-1.9.5-4.1 0-5.9.6-2.5.8-5.1 2-7.1 3.6-.5.4 1.3 3.4 2.5 6.5-5.1 2.6-10.5 5.2-15.9 7.9z"/><path class="st10" d="M1896.1 1220.3c-5.8 3.3-11.6 6.5-17.4 9.8-2.3 1.3-4.8 1.6-5.1-1.2-.3-2.6-2.8-7 2-7.9 6.6-1.4 13.4-1.8 20.1-2.7.2.6.3 1.3.4 2z"/><path class="st2" d="M1708 1368h-17.3c3.3-5.7 12.5-6 17.3 0zM1708.8 1361.8c-1.2-2.5-3.4-5.2-2.8-6.2 2.2-3.6 4.4-8 11.2-6.8-2.7 4.3-5.2 8.1-8.4 13z"/><path class="st13" d="M1713.4 1314.7c3 1.4 4.9 2.4 6.8 3.3-3.8 3-5.9 2.3-6.8-3.3z"/><path class="st17" d="M1003.2 1358.6c14.9-10.1 30-20.1 44.8-30.3 6.7-4.6 13.5-6.8 21.7-5.1 8.8 1.7 17.8 3.3 26.7 3.7 6.7.3 13.6-.7 20.2-2.1 2.3-.5 4.5-3.3 6.1-5.6 3.6-4.8 6.7-10 10.1-15 2-1 4-2 6.1-3v5.9c7.1-6 15.3-4.7 23.4-4.9-7.7-1.9-15.3-5.2-23.4-.9.4-1.7.4-3.7 1.3-4.9 2.7-3.6 5.9-6.8 8.8-10.3 4-4.7 8.3-5 12.8-.6 5.8 5.6 11.5 11.2 17.3 16.8 2.5 2.4 5 4.7 7.1 6.7-16.4 11.9-25.4 29-36.3 44.6-9.9 11.6-19.4 23.4-25.9 37.3-4 8.5-7 17.5-11.8 25.4-3.4 5.5-8.6 10.2-13.8 14.2-25.5 19.7-51.3 39.1-76.9 58.7-7.4 5.7-14.3 12.1-21.6 17.8-2.2 1.7-5.3 3.2-7.9 3.1-5.3 0-9.2 1.8-12.8 5.6-11.1 11.6-22.3 23.1-33.5 34.6-13.3 13.6-26.5 27.4-39.9 40.9-31.9 32-63.8 63.9-95.8 95.8-2 2-4.4 3.5-6.6 5.3-3-2-6.1-4.1-9.1-6.1-20.2-12.8-40.7-25.1-60.5-38.6-14.2-9.7-27.4-20.9-41.1-31.3-14.8-11.2-29.4-22.7-44.6-33.3-8.1-5.7-17.4-9.7-26.2-14.4-6.6-3.5-7.2-5-6.1-12.4 1.3-8.4 2.4-16.8 3.5-25.3.8-6.3-1.4-11.7-4.4-17.1-5.4-10-10.3-20.2-15.4-30.4-1.1-2.2-1.8-4.9-3.4-6.6-4.9-5-5-10.2-1.3-15.8 5.8-8.7 11.7-17.4 17.5-26.2 16.1-5.5 30.8 1.5 45.8 5.4 11.7 3 23.2 6.9 35 9 8.2 1.4 17 1.1 25.3.1 22.7-2.7 45.4-6 68.1-9.5 18.2-2.8 36.2-7 54.4-9.2 22.9-2.8 43.5-11.8 64.4-20.4 17.2-7.1 34.8-13.3 51.3-21.7 14.4-7.3 27.4-17.2 41.1-26 1.7-1.1 3.6-2.5 5.5-3.9zM768 1647c-1.3-1.3-2.5-2.7-3.9-3.9-.1-.1-1.3 1-2 1.5 1.3 1 2.6 2 3.8 3 .3.2.6.3.9.5-3.7.8-3.8 2.5-2.3 5.8 6.4 13.6 5.3 10.7 16.1 6.5 1.1-.4 2.7-2.3 2.4-3-.6-1.5-1.9-3.1-3.3-3.9-.9-.6-2.6.2-3.9.1-1.2-.2-2.3-.8-3.4-1.3.9-1 1.6-2.3 2.7-2.9 5.5-2.7 6.9 1.7 8.6 5.3 1 2.2 1.7 4.4 5 3.1 4.3-1.6 9.8-9.3 9.9-13.6-2.3-1-4.8-1.5-6.3-3-2.1-2.3-3.8-2.4-6.5-1.2-5.6 2.5-11.7 4.7-17.8 7zm-99.8-78.6c-11.6 4.9-21.7-1.1-32.3-1.4 9.1 2.3 18.2 4.7 26.9 6.9-2.3-4.2 3.3-2.5 5.4-5.5zm89.8 71.5c.1-.4.2-.8.4-1.1-7.6-2.6-15.2-5.2-22.7-7.8-.2.5-.3.9-.5 1.4l22.8 7.5zm383.9-330.3h-1.3v14.2h1.3v-14.2zm-454.2 147.3c.7.1 1.5.3 2.2.4.4-2.1.9-4.1 1.3-6.2-.7-.2-1.5-.3-2.2-.5-.5 2.2-.9 4.2-1.3 6.3z"/><path class="st16" d="M70.4 1504.3c4.3 3 8.5 6.2 12.9 9 3.5 2.2 7.3 3.8 11 5.7-.3.5-.6 1-.9 1.6-8-4.7-16.1-9.4-24.1-14.1.4-.8.8-1.5 1.1-2.2z"/><path class="st37" d="M1887.7 1529.5c-1.4.2-2.8.5-4.3.7-1.2.2-2.4.4-3.6.3-.2 0-.6-2-.5-2.1 1.2-.6 2.5-1.1 3.9-1.2 1.1-.1 2.3.2 3.5.3.4.6.7 1.3 1 2z"/><path class="st7" d="M1857.6 1581.7c-4.8-.9-9.5-2.2-14.3-2.6-2.2-.2-4.5 1.2-6.7 2-1.5.5-3 1.1-5.1 1.3 6-5.4 1.5-8.1-1.9-11.1-3.2-2.9-6.5-5.8-9.7-8.7-.1-.1-.2-.3-.4-.3-8-.5-8.6-8.4-12.5-13-5.4-6.3-4.4-8.1 4-9.2-.4-1-.8-1.8-1.3-2.9 3.2-1.3 6.3-.6 6.6 2.8.8 8.4 7.2 9.9 13.2 12.3 2.6 1 5.1 2.3 7.5 3.7 2.6 1.5 3.4 3.7 2.6 6.8-.5 2.3.1 4.9.3 7.4.6.1 1.2.2 1.7.3.7-1.3 1.6-2.5 2.2-3.8 1.2-2.5 2.3-5.1 3.4-7.7.4-.9 1-2.1.7-2.8-3.1-7.4 3.3-13.3 3.3-20.3 0-1.1 2.8-3.1 4.4-3.1 1.2-.1 2.9 2 3.8 3.4 1.9 3 3 6.6 5.3 9.4 1.1 1.3 3.9 1 6 1.5.2-.4.4-.7.6-1.1.6 1.3 1.9 2.7 1.8 3.9-.5 6.1 3.8 11.8 1.1 18.3-.9 2.1 1.5 5.5 2.3 8.3-3.6 1.3-7.2 2.9-10.9 3.9-2.4 1-5.3 1-8 1.3z"/><path class="st38" d="M1529 1325.1c.9-2.1 1.8-4.2 2.5-5.8 3.5 3.4 7.2 6.6 10.5 10.2.9 1 .5 3.1.7 4.8-1.8-.1-4.1.5-5.2-.4-3-2.6-5.5-5.7-8.5-8.8z"/><path class="st33" d="M1459.6 1491.8c-2.1-3.1-4.2-6.1-6.4-9.2.5-.3.9-.6 1.4-1 2.2 3.1 4.3 6.2 6.5 9.2-.5.4-1 .7-1.5 1z"/><path class="st39" d="M1179.1 1302.3c-5.8-5.6-11.5-11.2-17.3-16.8-4.5-4.4-8.8-4.1-12.8.6-2.9 3.4-6.1 6.7-8.8 10.3-1 1.3-.9 3.3-1.3 4.9-2 1-4 2-6.1 3-1.7-.7-3.3-1.3-5-2-1-1.1-1.8-2.9-2.9-3.2-8.7-1.7-13.8-8.6-20.2-13.5-3.8-3-7.2-6.5-10.3-10.3-2.1-2.5-3.1-5.9-4.6-8.9.6-.5 1.1-.9 1.7-1.4 4.1 3.7 9.2 6.7 12 11.1 5.6 8.9 13.3 14.8 22.2 19.7 4 2.2 6.9 2.3 10.3-1.9 4.8-6.1 10.6-11.4 16.6-17.7-3-3-6.7-6.7-10.4-10.5-2.7-2.7-5.6-5.4-8-8.4-.8-1-.3-3-.4-4.5 1.5.1 3.1.1 4.6.3.3 0 .5.4.8.6 15.3 15.5 30.7 30.9 46 46.4-2.1.8-4.1 1.5-6.1 2.2z"/><path class="st15" d="M1605.3 1668.2c3.1 5.3 6.3 10.6 9.4 15.9 4.5 7.8 11 13.7 18.7 18.3l17.1 12-3 3c-8.7-6-17.4-12.1-26.1-18.1-9-8.5-14-19.7-20.1-30.2 1.3-.3 2.6-.6 4-.9z"/><path class="st12" d="M1587.2 1324.4c5.6-2.8 10-5.1 15.3-7.7-.9 7.6-7.7 11-15.3 7.7z"/><path class="st24" d="M1626.4 1319.4c.2 1.5 1.2 3.9.6 4.4-1.4 1.2-3.6 2-5.5 2-1.4 0-2.8-1.5-4.2-2.4 3-1.3 6.1-2.7 9.1-4z"/><path class="st14" d="M1626.4 1319.4c-3 1.3-6.1 2.7-9.1 4-2.1.6-4.2 1.2-7.1 2 .9-1.8 1.5-2.9 2.1-3.9 4.4-1 8.7-2 13.1-3 .3.2.7.6 1 .9z"/><path class="st28" d="M1112.5 1639.8c8.4 3.1 8.4 3.1 11.8-5.7 2.3-5.9 5.3-11.6 3.3-18.3-.2-.6.4-1.5.9-2.7 3 1.9 5.7 3.6 7.3 4.6-1.3 4.4-3.4 8.4-3.6 12.6-.3 5.3-2.1 9.3-5.7 12.9-4 4-7.6 7.9-9.6 13.7-1.4 4.3-6.1 7.7-9.9 10.8-2.4 1.9-5.6 2.7-7.6-1.9-1.2-2.8-.6-3.6 1.7-5 3.2-2 6.2-4.4 8.9-7 3.9-3.8 6.6-8.1 2.5-14z"/><path class="st26" d="M1171.4 1595.4c3-.6 6-1.2 9.3-1.8 0 3.4-2.5 5.4-5.6 6-5.4.9-7.6 4.3-7.5 9 .1 6.6-5.8 5.8-9.1 7.4-1.9.9-5.4-1.1-7.9-2.4-.8-.4-1.1-2.7-.8-3.9.2-.6 2.6-1.5 3.3-1 5.6 3.5 7.9-1.3 10.6-4.4 2.6-3 4.6-6.5 6.9-9.8.3.4.6.7.8.9z"/><path class="st40" d="M1297.9 1614.6c-6.1-1.3-12.2-2.6-18.2-4-.6-.2-1-1.4-1.5-2.1 1-.4 2.1-1.4 2.9-1.2 5.7 1.9 11.4 4 17 6.1-.1.4-.1.8-.2 1.2z"/><path class="st22" d="M1241.4 1712.4c3.6 2.4 8.8 2.9 10.4 7.6-.4.5-.8 1-1.1 1.5-3.5-2.7-6.9-5.4-10.4-8.1.4-.3.7-.7 1.1-1z"/><path class="st27" d="M1526.9 1706.4c-.4 1.8-.7 3.5-1.2 5.3-.1.4-1.2.5-1.8.8.7-7.5 1.4-15.1 2.1-22.6h1c-.1 5.4-.1 11-.1 16.5z"/><path class="st41" d="M1452.2 1654.2c-3 2.3-5.9 4.5-8.8 6.8-.2-.2-.5-.3-.7-.5 1.6-3.2 3.1-6.3 4.9-9.8 1.5 1.1 3.3 2.5 4.6 3.5z"/><path class="st9" d="M1499.7 1681.3c-1.7 3.5-3 6.2-4.4 9.2-3.6-4.9-2.7-7 4.4-9.2z"/><path class="st6" d="M1399.2 1722.9c.4 2.6.8 5.1 1.3 7.7-.8.1-1.6.3-2.4.4-.4-2.5-.9-5-1.3-7.5.7-.2 1.5-.4 2.4-.6z"/><path class="st22" d="M426.2 1540.5c-10.9-19.7-3.6-39.9 17.9-44.9-2.4 1.4-3.5 2.2-4.7 2.8-8 4-7.8 4-5.6 13 3.2 13.3 6.3 26.6 9.4 40-.5.1-.9.2-1.4.3-3.7-15.5-7.3-31.1-11-46.6-.5 0-1 0-1.4-.1-3.3 6-8.6 11.1-6.6 19.2 1.4 5.5 2.3 10.9 3.4 16.3zM518.6 1579c-4.6 2.4-7.4-7.6-12.5.7-.6-.7-1.4-1.6-2.3-2.5 1.7-1.1 3.7-3.5 4.9-3.1 3.5 1.1 6.6 3.2 9.9 4.9z"/><path class="st42" d="M503.7 1476c-9.3 1.5-18.6 3-27.9 4.4-.1-.4-.1-.7-.2-1.1l27.9-4.8c0 .6.1 1 .2 1.5z"/><path class="st33" d="M426.2 1540.5c5.3 7 10.6 14 15.8 21-6.3-6.1-13.1-12.1-15.8-21z"/><path class="st31" d="M459.9 1511c4.1-.3 7.1-.4 10.8-.7-4 2.3-10.5 2.2-6.4 10.2-.7-.3-1.4-.6-2.1-.8-.8-3-1.6-6-2.3-8.7z"/><path class="st43" d="M1813.4 1422.9c1.3.7 2.7 1.3 4 2-6.5 28-13.2 55.9-19.4 84-1.7 7.9-2.2 16.2-2.6 24.4-.9 18.2-2.5 36.4-1.9 54.6.6 17.4 3.7 34.8 5.7 52.2.3 2.7.7 5.4 1 8-.3 3.3-1.9 4.4-5 3-.3-2.3-.7-4.7-1-7-1-7.4-1.9-14.9-3-22.3-2.5-16.4-2.8-32.9-2-49.4.4-9.1 1.3-18.3.9-27.4-.9-20.4 3.2-40.1 7.9-59.7 5-20.9 10.2-41.6 15.4-62.4z"/><path class="st25" d="M1847.5 1627l-1-1c6.3-6.9 6.1-12.7-.5-19.1-3.5-3.4-7.2-6.4-10.4-10.1-2.6-3-3-6.6-.9-11.7 2.2 4.6 3.2 8.5 5.5 11.2 2.4 2.8 6.6 3.9 9.3 6.5 7.6 7.1 6.2 19.5-2 24.2z"/><path class="st40" d="M1875.7 1522.1c1 1.2 1.8 2.1 2.8 3.3-6.3-.3-8.9-3.2-8.4-8.7.2-2.6-1.5-5.2 1.4-7.7 3-2.6 5.2-2.6 6.7 1.1 1.8 4.4.8 8.3-2.5 12z"/><path class="st7" d="M1814.7 1502.1c-.2 10.4-.4 20-.7 29.6 0 1.1-.7 2.9-1.5 3.2-1.2.4-3 .1-4.2-.6-.5-.3-.3-2.2-.2-3.3.3-3.8 1-7.5 1.2-11.3.2-6.3 2.5-11.8 5.4-17.6z"/><path class="st33" d="M1857.3 1514.1c-.7-1.1-1.4-2.1-1.9-3.2-9.9-19.3-19.9-38.6-29.4-58.1-2.2-4.5-2.4-9.9-2.9-15 2.3 17.2 13.4 30.4 20.2 45.5 4.6 10.3 9.8 20.3 14.8 30.4-.2.1-.5.3-.8.4z"/><path class="st44" d="M1842.2 1534.1c-4.8-3.7-6.5-9-8.2-14.1-.9-2.9-1-6.1-1.2-9.1-.1-1.1.4-2.3.7-3.4.9.8 2.5 1.4 2.7 2.3 2.1 7.8 3.9 15.7 6 24.3z"/><path class="st41" d="M1876 1532.4c-3.3 2.3-5.7 4.1-8.4 5.5-.4.2-2-2-3-3.1 2.4-1.9 4.7-4 7.3-5.6.4-.2 2.1 1.6 4.1 3.2z"/><path class="st44" d="M1803.4 1523.3c-1.3-1.1-2.4-1.6-2.6-2.4-.5-1.8-.6-3.8-.6-5.7 0-.2 1.3-.4 2.1-.6.4 1.7.9 3.3 1.1 5 .2 1 0 1.9 0 3.7z"/><path class="st2" d="M1795.3 1651.1c3.1 1.4 4.7.3 5-3 1.6 10 3.5 20.1 4.8 30.1.6 4.8 1.3 9.2 5.1 12.6.7.6.9 1.7 1.4 2.8-2.6 1.5-4.8 5.2-7.8 2.1-1.8-1.9-2.1-5.3-3.2-8.2-4.5 3.2-6.1 6.8-2.8 11.2-3.1.8-6 1.1-8.5 2.3-2.7 1.3-5.2 3.3-1.2 6.6-6.9 4.2-13.2 8-19.5 11.6-.8.5-2.7 0-3.5-.7-2.2-1.8-4-4-6-6 1.7-.8 3.4-1.7 5.1-2.5-.7-.8-1.4-1.7-2.1-2.5 15.8-.4 25.7-9.9 33.3-22.1 2.1-3.3 2.8-8 2.6-12-.3-7.5-1.7-14.9-2.7-22.3z"/><path class="st2" d="M1762.1 1707.4c.7.8 1.4 1.7 2.1 2.5-1.7.8-3.4 1.7-5.1 2.5-8.6-2.6-17.3-3.8-26.2-1.4-5.2 1.4-10.2 1.5-15.7.6-7.4-1.2-14.2 1.6-20.2 5.9-7.3 5.2-14.7 10-24.1 10-9.9 0-18.2-3.7-25.5-10.1l3-3c2.1 1.4 4.1 2.8 6.3 4.2 10.6 6.6 21.2 6.4 31.6-.3 2.7-1.7 5.1-3.7 7.7-5.6 7.3-5.4 15.3-9 24.6-8.3 13.9 1 27.7 2 41.5 3zM1580.1 1728.5c4.2-9.7-3.1-13.5-9-18.1 5.6-.9 9 2.8 12.4 6.2 2.6 2.6.5 9.2-3.4 11.9zM1580.2 1728.5c-2.2 6.5-2.8 12.9 1.2 19.6-8.7-5.5-8.9-11.2-1.2-19.6z"/><path class="st27" d="M1616 1755.8c-2.5 1.6-4.9 3.4-7.5 4.6-.8.4-2.4-.8-3.6-1.3.7-1.3 1.1-3.4 2.1-3.7 2.5-.9 5.4-1 8.1-1.5.2.6.5 1.2.9 1.9zM1817.8 1692.5c-2.5-2.2-4.2-3.5-5.6-5-.5-.6-.7-2-.4-2.6.4-.7 1.7-1.4 2.4-1.2.9.2 2.1 1 2.4 1.9.7 1.6.7 3.4 1.2 6.9z"/><path class="st17" d="M1071.5 1721.5c.3.3.7.6 1 1l-6 31.2c-1.2-.5-2.5-.8-3.6-1.5-5.1-3.1-7.3-2.8-11 2-1.7 2.2-3.1 4.7-4.8 7-1 1.4-2.2 2.6-2.7-.4 3.6-3.9 7.3-7.7 10.8-11.7 2.3-2.7.8-6.4-3.2-8.4-13.8-7-27.7-13.9-41.4-21-2.4-1.2-4.4-3.1-6.5-4.7.3-.6.7-1.1 1-1.7 1.6.8 3.2 1.5 4.8 2.4 4.6 2.8 9.1 5.9 13.7 8.6 2.1 1.2 4.7 1.8 6.8 2.9 6.9 3.7 13.9 7.3 20.6 11.4 2.5 1.5 4.5 4.1 6.6 6.3 2 2.1 3.9 4.3 7 7.7 2.5-11.5 4.7-21.3 6.9-31.1zM1067.5 1754.6c3.7 2.3 7.4 4.7 11.1 7 1.7 1.5 3.3 3 5 4.6-.3.4-.6.7-.9 1.1-6-3-10.6-7.8-15.2-12.7zM468.8 1590.3c-1.3.7-2.7 1.9-4 1.9-7.6-.2-11.1 2-14 9-1.8-5-1.9-5.7 5.2-9.4 3.6-1.9 8.1-2.1 12.2-3.1.3.5.5 1 .6 1.6zM400 1583.8c7.5-4.9 14.9-9.8 22.4-14.6.3.4.6.8.8 1.2-7.4 5-14.8 10-22.1 15.1-.4-.7-.7-1.2-1.1-1.7zM459.4 1601.3c2.8-2.5 5.5-4.9 8.3-7.4.4.5.9 1.1 1.3 1.6-2.9 2.2-5.9 4.5-8.8 6.7-.3-.2-.5-.5-.8-.9z"/><path class="st5" d="M818.1 1753.5c2.9-1.2 5.6-3 8.6-3.4 1.2-.2 2.8 2.8 4.2 4.3-1.5.8-3 2.2-4.5 2.2-2.6 0-5.1-.9-7.7-1.3-.1-.7-.3-1.2-.6-1.8z"/><path class="st29" d="M977 1708.4c3-.7 6.1-1.4 9.1-2.1 1.5 0 3 0 4.5.1 5.3.2 6.1 1.2 4.9 6.4-1.6 7.3-3.1 8-9.1 3.7-3.4-2.4-6.3-5.4-9.4-8.1z"/><path class="st45" d="M1315.9 1705.3c3.3 2.2 6.5 4.4 9.8 6.6-.3.4-.5.8-.8 1.2l-10.2-5.7c.4-.8.8-1.4 1.2-2.1z"/><path class="st2" d="M596.2 1275.9c3.9-3.2 7.8-6.3 11.7-9.5l.8.8c-3.7 3.4-7.4 6.7-11.1 10.1-.5-.5-.9-1-1.4-1.4z"/><path class="st3" d="M1762.1 1707.4l-41.4-3c-9.4-.7-17.3 2.9-24.6 8.3-2.6 1.9-5 3.9-7.7 5.6-10.4 6.7-21 6.9-31.6.3-2.1-1.3-4.2-2.8-6.3-4.2l-17.1-12c-.8-1.4-1.6-2.8-2.6-4.6 26-9.9 53.1-7.8 79.7-10.1-6.5-.6-13.1-1.3-19.6-1.9-.1-.6-.1-1.1-.2-1.7 14.4-4.6 28.9-9.2 43.3-13.9 1.7-1 3.3-2 5-3 16.2-7.1 32.4-14.2 48.6-21.2 2.1-.9 4.4-1.3 6.7-1.9.3 2.3.7 4.7 1 7 1 7.4 2.5 14.8 2.8 22.2.2 4-.6 8.7-2.6 12-7.7 12.2-17.7 21.7-33.4 22.1z"/><path class="st40" d="M1679.7 1488.4c2.9-.3 5.8-.6 9-1 .8 1.8 2.5 3.9 2.4 5.9-.1 4.2-4.1 5.2-8.6 2.3-1.5-1-2.6-2.8-3.9-4.3.4-1 .7-2 1.1-2.9z"/><path class="st37" d="M1679.7 1488.4c-.3 1-.7 2-1 2.9-6.3 3.3-12.7 6.7-18.9 9.9.7-5.4 9.8-11.4 19.9-12.8z"/><path class="st29" d="M1723.5 1628.4c-.9 1.2-2.2 2.2-2.6 3.5-.5 1.5-.4 3.2-.4 4.9 0 1.3.4 2.7.6 4-1.7.2-3.7 1-5.1.4-.9-.4-1.9-3.2-1.4-4.1 2-3.5 4.6-6.7 7-10 .6.5 1.3.9 1.9 1.3z"/><path class="st37" d="M1612.1 1518c3.7-6.1 9.1-6.9 16-2.9-4.5 6.4-11.3-.9-16 2.9z"/><path class="st46" d="M1739 1667.2c-1.7 1-3.3 2-5 3-2.7-3.2-2.2-6 1-8.4 1-.8 2.5-1 3.7-1.6.3 1.2.7 2.4.8 3.6.1 1.1-.3 2.3-.5 3.4z"/><path class="st34" d="M1764.1 1569.7c6-3 6.3-4 3.6-9.8-1-2.2-1-4.8-1.5-7.2.5-.1 1-.1 1.5-.2 1.6 3.8 3.5 7.6 4.6 11.6.9 3.2-4.2 6.5-8.2 5.6z"/><path class="st44" d="M1519 1546.8c-1.2.4-2.5.8-3.8 1.2.4 1.2.7 2.4 1.3 4.4-1.7-.6-3.6-1-3.6-1.2.4-2.9 1-5.8 1.5-8.7 1.7.8 3.5 1.7 5.2 2.5-.1.6-.3 1.2-.6 1.8z"/><path class="st37" d="M1770.8 1502.1c-1.1-1.8-2.5-3-2.2-3.6.4-1.3 1.8-2.3 2.7-3.4.9 1.1 2.4 2.1 2.4 3.2 0 .9-1.5 2-2.9 3.8z"/><path class="st34" d="M1764.1 1569.7c-2 2.8-4.2 2.7-6.8.7-1.8-1.4-3.8-2.5-5.5-4.6l12.3 3.9z"/><path class="st29" d="M1720.7 1514.5c-1.8 1.2-3 2.5-3.6 2.3-1.1-.4-2.2-1.7-2.6-2.8-.2-.4 1.6-2.2 2.3-2.2 1.1.2 2.1 1.4 3.9 2.7z"/><path class="st33" d="M1738.5 1571.8c.4-4.7 2.8-5.9 8.3-4.5-2.5 1.3-5.3 2.9-8.3 4.5z"/><path class="st34" d="M1614 1451.5c-3.3 3.7-4.9 3.5-7.6-1.2 2.9.5 5 .8 7.6 1.2z"/><path class="st25" d="M1629.2 1437.5c-1.6 2.7-2.9 4.8-4.2 7.1-2.1-4.3-1.3-5.5 4.2-7.1z"/><path class="st7" d="M768 1647c6-2.3 12.2-4.5 18.1-7.1 2.7-1.2 4.4-1 6.5 1.2 1.4 1.5 4 2 6.3 3-.1 4.3-5.6 12-9.9 13.6-3.3 1.3-4-.9-5-3.1-1.7-3.6-3.1-7.9-8.6-5.3-1.1.5-1.8 1.9-2.7 2.9 1.1.4 2.2 1.1 3.4 1.3 1.3.2 3-.6 3.9-.1 1.4.8 2.7 2.4 3.3 3.9.2.6-1.3 2.5-2.4 3-10.9 4.2-9.8 7.2-16.1-6.5-1.5-3.3-1.4-5 2.3-5.8.1-.3.5-.6.9-1z"/><path class="st11" d="M1138.9 1301.3c8-4.3 15.6-1 23.4.9-8 .2-16.2-1-23.4 4.9v-5.8z"/><path class="st43" d="M668.2 1568.4c-2.1 3-7.7 1.3-5.4 5.5-8.7-2.2-17.8-4.6-26.9-6.9 10.7.3 20.7 6.3 32.3 1.4z"/><path class="st11" d="M758 1639.9l-22.8-7.5c.2-.5.3-.9.5-1.4 7.6 2.6 15.2 5.2 22.7 7.8-.1.3-.2.7-.4 1.1z"/><path class="st42" d="M1141.9 1309.6v14.2h-1.3v-14.2h1.3z"/><path class="st25" d="M768 1647c-.4.4-.8.7-1.1 1.1-.3-.2-.6-.3-.9-.5-1.3-1-2.6-2-3.8-3 .7-.5 1.9-1.6 2-1.5 1.3 1.2 2.5 2.6 3.8 3.9z"/><path class="st47" d="M687.7 1456.9c.4-2.1.8-4.1 1.3-6.2.7.2 1.5.3 2.2.5-.4 2.1-.9 4.1-1.3 6.2-.8-.2-1.5-.4-2.2-.5z"/></svg>